<?xml version="1.0" encoding="utf-8" standalone="no"?>
<!DOCTYPE svg PUBLIC "-//W3C//DTD SVG 1.1//EN"
  "http://www.w3.org/Graphics/SVG/1.1/DTD/svg11.dtd">
<!-- Created with matplotlib (https://matplotlib.org/) -->
<svg height="504pt" version="1.1" viewBox="0 0 864 504" width="864pt" xmlns="http://www.w3.org/2000/svg" xmlns:xlink="http://www.w3.org/1999/xlink">
 <defs>
  <style type="text/css">
*{stroke-linecap:butt;stroke-linejoin:round;}
  </style>
 </defs>
 <g id="figure_1">
  <g id="patch_1">
   <path d="M 0 504 
L 864 504 
L 864 0 
L 0 0 
z
" style="fill:#ffffff;"/>
  </g>
  <g id="axes_1">
   <g id="patch_2">
    <path d="M 60.48 210.824403 
L 296.116364 210.824403 
L 296.116364 50.4 
L 60.48 50.4 
z
" style="fill:#e5e5e5;"/>
   </g>
   <g id="matplotlib.axis_1">
    <g id="xtick_1">
     <g id="line2d_1">
      <path clip-path="url(#p10e0195c95)" d="M 96.84548 210.824403 
L 96.84548 50.4 
" style="fill:none;stroke:#ffffff;stroke-linecap:square;stroke-width:0.8;"/>
     </g>
     <g id="line2d_2">
      <defs>
       <path d="M 0 0 
L 0 3.5 
" id="m1056975cc5" style="stroke:#555555;stroke-width:0.8;"/>
      </defs>
      <g>
       <use style="fill:#555555;stroke:#555555;stroke-width:0.8;" x="96.84548" xlink:href="#m1056975cc5" y="210.824403"/>
      </g>
     </g>
    </g>
    <g id="xtick_2">
     <g id="line2d_3">
      <path clip-path="url(#p10e0195c95)" d="M 262.90455 210.824403 
L 262.90455 50.4 
" style="fill:none;stroke:#ffffff;stroke-linecap:square;stroke-width:0.8;"/>
     </g>
     <g id="line2d_4">
      <g>
       <use style="fill:#555555;stroke:#555555;stroke-width:0.8;" x="262.90455" xlink:href="#m1056975cc5" y="210.824403"/>
      </g>
     </g>
    </g>
   </g>
   <g id="matplotlib.axis_2"/>
   <g id="line2d_5">
    <defs>
     <path d="M 0 2.5 
C 0.663008 2.5 1.29895 2.236584 1.767767 1.767767 
C 2.236584 1.29895 2.5 0.663008 2.5 0 
C 2.5 -0.663008 2.236584 -1.29895 1.767767 -1.767767 
C 1.29895 -2.236584 0.663008 -2.5 0 -2.5 
C -0.663008 -2.5 -1.29895 -2.236584 -1.767767 -1.767767 
C -2.236584 -1.29895 -2.5 -0.663008 -2.5 0 
C -2.5 0.663008 -2.236584 1.29895 -1.767767 1.767767 
C -1.29895 2.236584 -0.663008 2.5 0 2.5 
z
" id="md6e4999668" style="stroke:#e24a33;"/>
    </defs>
    <g clip-path="url(#p10e0195c95)">
     <use style="fill:#e24a33;stroke:#e24a33;" x="121.407693" xlink:href="#md6e4999668" y="59.83673"/>
     <use style="fill:#e24a33;stroke:#e24a33;" x="102.32139" xlink:href="#md6e4999668" y="69.273459"/>
     <use style="fill:#e24a33;stroke:#e24a33;" x="96.515089" xlink:href="#md6e4999668" y="78.710189"/>
     <use style="fill:#e24a33;stroke:#e24a33;" x="96.821923" xlink:href="#md6e4999668" y="88.146918"/>
     <use style="fill:#e24a33;stroke:#e24a33;" x="110.920282" xlink:href="#md6e4999668" y="97.583648"/>
     <use style="fill:#e24a33;stroke:#e24a33;" x="101.967837" xlink:href="#md6e4999668" y="107.020378"/>
     <use style="fill:#e24a33;stroke:#e24a33;" x="96.560025" xlink:href="#md6e4999668" y="116.457107"/>
     <use style="fill:#e24a33;stroke:#e24a33;" x="96.827862" xlink:href="#md6e4999668" y="125.893837"/>
     <use style="fill:#e24a33;stroke:#e24a33;" x="109.259812" xlink:href="#md6e4999668" y="135.330566"/>
     <use style="fill:#e24a33;stroke:#e24a33;" x="97.786968" xlink:href="#md6e4999668" y="144.767296"/>
     <use style="fill:#e24a33;stroke:#e24a33;" x="99.892051" xlink:href="#md6e4999668" y="154.204026"/>
     <use style="fill:#e24a33;stroke:#e24a33;" x="97.090552" xlink:href="#md6e4999668" y="163.640755"/>
     <use style="fill:#e24a33;stroke:#e24a33;" x="110.710447" xlink:href="#md6e4999668" y="173.077485"/>
     <use style="fill:#e24a33;stroke:#e24a33;" x="96.248241" xlink:href="#md6e4999668" y="182.514214"/>
     <use style="fill:#e24a33;stroke:#e24a33;" x="101.189863" xlink:href="#md6e4999668" y="191.950944"/>
     <use style="fill:#e24a33;stroke:#e24a33;" x="100.156127" xlink:href="#md6e4999668" y="201.387674"/>
    </g>
   </g>
   <g id="patch_3">
    <path d="M 60.48 210.824403 
L 60.48 50.4 
" style="fill:none;stroke:#ffffff;stroke-linecap:square;stroke-linejoin:miter;"/>
   </g>
   <g id="patch_4">
    <path d="M 296.116364 210.824403 
L 296.116364 50.4 
" style="fill:none;stroke:#ffffff;stroke-linecap:square;stroke-linejoin:miter;"/>
   </g>
   <g id="patch_5">
    <path d="M 60.48 210.824403 
L 296.116364 210.824403 
" style="fill:none;stroke:#ffffff;stroke-linecap:square;stroke-linejoin:miter;"/>
   </g>
   <g id="patch_6">
    <path d="M 60.48 50.4 
L 296.116364 50.4 
" style="fill:none;stroke:#ffffff;stroke-linecap:square;stroke-linejoin:miter;"/>
   </g>
   <g id="text_1">
    <!-- campylob. -->
    <defs>
     <path d="M 34.90625 35 
C 33 35 30.203125 35 30.203125 31.515625 
C 30.203125 28.71875 32.5 27.921875 33.796875 27.921875 
C 34.5 27.921875 37.40625 28.234375 37.40625 31.625 
C 37.40625 38.546875 30.59375 43.796875 22.90625 43.796875 
C 12.296875 43.796875 3.296875 34.03125 3.296875 21.296875 
C 3.296875 8.0625 12.703125 -1 22.90625 -1 
C 35.296875 -1 38.40625 10.578125 38.40625 11.6875 
C 38.40625 12.09375 38.296875 12.390625 37.59375 12.390625 
C 36.90625 12.390625 36.796875 12.296875 36.40625 10.984375 
C 33.796875 2.8125 28.09375 0.796875 23.796875 0.796875 
C 17.40625 0.796875 9.703125 6.671875 9.703125 21.390625 
C 9.703125 36.53125 17.09375 42 23 42 
C 26.90625 42 32.703125 40.203125 34.90625 35 
z
" id="CMR17-99"/>
     <path d="M 36 25.828125 
C 36 32.375 36 35.84375 31.796875 39.734375 
C 28.09375 43 23.796875 44 20.40625 44 
C 12.5 44 6.796875 37.609375 6.796875 30.796875 
C 6.796875 27 9.796875 27 10.40625 27 
C 11.703125 27 14 27.78125 14 30.53125 
C 14 33 12.09375 34.078125 10.40625 34.078125 
C 10 34.078125 9.5 33.96875 9.203125 33.875 
C 11.296875 40.5 16.703125 42.40625 20.203125 42.40625 
C 25.203125 42.40625 30.703125 37.953125 30.703125 29.453125 
L 30.703125 25 
C 24.796875 25 17.703125 24.203125 12.09375 21.203125 
C 5.796875 17.703125 4 12.703125 4 8.90625 
C 4 1.203125 13 -1 18.296875 -1 
C 23.796875 -1 28.90625 2.171875 31.09375 7.984375 
C 31.296875 3.640625 34.09375 -0.28125 38.5 -0.28125 
C 40.59375 -0.28125 45.90625 1.09375 45.90625 8.859375 
L 45.90625 14.375 
L 44.09375 14.375 
L 44.09375 8.78125 
C 44.09375 2.78125 41.40625 2 40.09375 2 
C 36 2 36 7.15625 36 11.53125 
z
M 30.703125 13.59375 
C 30.703125 4.953125 24.5 0.59375 19 0.59375 
C 14 0.59375 10.09375 4.296875 10.09375 8.90625 
C 10.09375 11.890625 11.40625 17.1875 17.203125 20.390625 
C 22 23.09375 27.5 23.5 30.703125 23.5 
z
" id="CMR17-97"/>
     <path d="M 67.59375 30.203125 
C 67.59375 35.1875 66.703125 43.59375 54.796875 43.59375 
C 48 43.59375 43.296875 39 41.5 33.609375 
L 41.40625 33.609375 
C 40.203125 41.8125 34.296875 43.59375 28.703125 43.59375 
C 20.796875 43.59375 16.703125 37.5 15.203125 33.5 
L 15.09375 33.5 
L 15.09375 43.59375 
L 3.296875 42.5 
L 3.296875 39.90625 
C 9.203125 39.90625 10.09375 39.296875 10.09375 34.5 
L 10.09375 6.6875 
C 10.09375 2.875 9.703125 2.390625 3.296875 2.390625 
L 3.296875 -0.203125 
C 5.703125 0 10.09375 0 12.703125 0 
C 15.296875 0 19.796875 0 22.203125 -0.203125 
L 22.203125 2.390625 
C 15.796875 2.390625 15.40625 2.78125 15.40625 6.6875 
L 15.40625 25.90625 
C 15.40625 35.109375 21 42 28 42 
C 35.40625 42 36.203125 35.40625 36.203125 30.59375 
L 36.203125 6.6875 
C 36.203125 2.875 35.796875 2.390625 29.40625 2.390625 
L 29.40625 -0.203125 
C 31.796875 0 36.203125 0 38.796875 0 
C 41.40625 0 45.90625 0 48.296875 -0.203125 
L 48.296875 2.390625 
C 41.90625 2.390625 41.5 2.78125 41.5 6.6875 
L 41.5 25.90625 
C 41.5 35.109375 47.09375 42 54.09375 42 
C 61.5 42 62.296875 35.40625 62.296875 30.59375 
L 62.296875 6.6875 
C 62.296875 2.875 61.90625 2.390625 55.5 2.390625 
L 55.5 -0.203125 
C 57.90625 0 62.296875 0 64.90625 0 
C 67.5 0 72 0 74.40625 -0.203125 
L 74.40625 2.390625 
C 68 2.390625 67.59375 2.78125 67.59375 6.6875 
z
" id="CMR17-109"/>
     <path d="M 22 -16.609375 
C 15.59375 -16.609375 15.203125 -16.203125 15.203125 -12.328125 
L 15.203125 6.28125 
C 18.09375 2.09375 22.296875 -0.59375 27.59375 -0.59375 
C 37.59375 -0.59375 47.703125 8.171875 47.703125 21.6875 
C 47.703125 34.234375 39 43.78125 28.703125 43.78125 
C 22.703125 43.78125 17.796875 40.5 15 36.53125 
L 15 43.78125 
L 3.09375 42.6875 
L 3.09375 40.109375 
C 9 40.109375 9.90625 39.5 9.90625 34.734375 
L 9.90625 -12.328125 
C 9.90625 -16.109375 9.5 -16.609375 3.09375 -16.609375 
L 3.09375 -19.1875 
C 5.5 -19 9.90625 -19 12.5 -19 
C 15.09375 -19 19.59375 -19 22 -19.1875 
z
M 15.203125 31.4375 
C 15.203125 32.84375 15.203125 34.921875 19.09375 38.609375 
C 19.59375 39.015625 23 42 28 42 
C 35.296875 42 41.296875 32.9375 41.296875 21.59375 
C 41.296875 10.25 34.90625 1 27 1 
C 23.40625 1 19.5 2.6875 16.5 7.375 
C 15.203125 9.5625 15.203125 10.15625 15.203125 11.75 
z
" id="CMR17-112"/>
     <path d="M 39 34.328125 
C 41.5 40.40625 46 40.40625 47.40625 40.40625 
L 47.40625 43 
C 45.5 43 43 43 41.09375 43 
C 39 43 35.703125 43 33.703125 43.09375 
L 33.703125 40.5 
C 37.5 40.203125 37.59375 37.40625 37.59375 36.609375 
C 37.59375 35.625 37.40625 35.125 36.90625 33.921875 
L 26 7.015625 
L 14.09375 36.03125 
C 13.59375 37.21875 13.59375 37.90625 13.59375 38.015625 
C 13.59375 40.203125 15.90625 40.40625 18.296875 40.40625 
L 18.296875 43.09375 
C 15.90625 43 11.59375 43 9.09375 43 
C 6.40625 43 3.203125 43 1 43.09375 
L 1 40.40625 
C 6.40625 40.40625 7 39.90625 8.296875 36.71875 
L 23.203125 0.234375 
C 18.703125 -11.53125 16.09375 -18.40625 9.796875 -18.40625 
C 8.703125 -18.40625 6.203125 -18.109375 4.40625 -16.3125 
C 6.703125 -16.109375 7.703125 -14.71875 7.703125 -13.015625 
C 7.703125 -11.328125 6.5 -9.828125 4.5 -9.828125 
C 2.296875 -9.828125 1.203125 -11.328125 1.203125 -13.125 
C 1.203125 -17.109375 5.296875 -20 9.796875 -20 
C 15.59375 -20 19.203125 -14.40625 21.203125 -9.4375 
z
" id="CMR17-121"/>
     <path d="M 15.296875 68.6875 
L 3.40625 67.59375 
L 3.40625 65 
C 9.296875 65 10.203125 64.40625 10.203125 59.640625 
L 10.203125 6.65625 
C 10.203125 2.875 9.796875 2.390625 3.40625 2.390625 
L 3.40625 -0.203125 
C 5.796875 0 10.203125 0 12.703125 0 
C 15.296875 0 19.703125 0 22.09375 -0.203125 
L 22.09375 2.390625 
C 15.703125 2.390625 15.296875 2.78125 15.296875 6.65625 
z
" id="CMR17-108"/>
     <path d="M 43.09375 21.1875 
C 43.09375 34 33.796875 44 22.90625 44 
C 12 44 2.703125 34 2.703125 21.1875 
C 2.703125 8.609375 12 -1 22.90625 -1 
C 33.796875 -1 43.09375 8.609375 43.09375 21.1875 
z
M 22.90625 0.796875 
C 18.203125 0.796875 14.203125 3.59375 11.90625 7.5 
C 9.40625 11.984375 9.09375 17.59375 9.09375 22 
C 9.09375 26.203125 9.296875 31.40625 11.90625 35.90625 
C 13.90625 39.203125 17.796875 42.40625 22.90625 42.40625 
C 27.40625 42.40625 31.203125 39.90625 33.59375 36.40625 
C 36.703125 31.703125 36.703125 25.109375 36.703125 22 
C 36.703125 18.09375 36.5 12.109375 33.796875 7.296875 
C 31 2.703125 26.703125 0.796875 22.90625 0.796875 
z
" id="CMR17-111"/>
     <path d="M 15 68.6875 
L 3.09375 67.59375 
L 3.09375 65 
C 9 65 9.90625 64.40625 9.90625 59.640625 
L 9.90625 -0.203125 
L 11.703125 -0.203125 
L 14.59375 6.890625 
C 17.5 2.203125 21.796875 -1 27.59375 -1 
C 37.59375 -1 47.703125 7.8125 47.703125 21.40625 
C 47.703125 34.1875 38.703125 43.59375 28.59375 43.59375 
C 22.40625 43.59375 18 40.296875 15 36.40625 
z
M 15.203125 31.3125 
C 15.203125 33.09375 15.203125 33.40625 16.59375 35.5 
C 20.5 41.515625 26.09375 42 28 42 
C 31 42 41.296875 40.390625 41.296875 21.5 
C 41.296875 1.6875 29.5 0.59375 27.09375 0.59375 
C 24 0.59375 19.5 1.78125 16.296875 7.59375 
C 15.203125 9.5 15.203125 9.703125 15.203125 11.484375 
z
" id="CMR17-98"/>
     <path d="M 16.59375 4.078125 
C 16.59375 6.5625 14.59375 8.15625 12.5 8.15625 
C 10.5 8.15625 8.40625 6.5625 8.40625 4.078125 
C 8.40625 1.59375 10.40625 0 12.5 0 
C 14.5 0 16.59375 1.59375 16.59375 4.078125 
z
" id="CMR17-46"/>
    </defs>
    <g transform="translate(133.637154 44.4)scale(0.22 -0.22)">
     <use transform="scale(0.996264)" xlink:href="#CMR17-99"/>
     <use transform="translate(40.48566 0)scale(0.996264)" xlink:href="#CMR17-97"/>
     <use transform="translate(86.176138 0)scale(0.996264)" xlink:href="#CMR17-109"/>
     <use transform="translate(163.095727 0)scale(0.996264)" xlink:href="#CMR17-112"/>
     <use transform="translate(211.388643 0)scale(0.996264)" xlink:href="#CMR17-121"/>
     <use transform="translate(259.681559 0)scale(0.996264)" xlink:href="#CMR17-108"/>
     <use transform="translate(284.552618 0)scale(0.996264)" xlink:href="#CMR17-111"/>
     <use transform="translate(330.243095 0)scale(0.996264)" xlink:href="#CMR17-98"/>
     <use transform="translate(381.138465 0)scale(0.996264)" xlink:href="#CMR17-46"/>
    </g>
   </g>
  </g>
  <g id="axes_2">
   <g id="patch_7">
    <path d="M 60.48 287.115119 
L 296.116364 287.115119 
L 296.116364 224.727851 
L 60.48 224.727851 
z
" style="fill:#e5e5e5;"/>
   </g>
   <g id="matplotlib.axis_3">
    <g id="xtick_3">
     <g id="line2d_6">
      <path clip-path="url(#p11b71a6049)" d="M 96.84548 287.115119 
L 96.84548 224.727851 
" style="fill:none;stroke:#ffffff;stroke-linecap:square;stroke-width:0.8;"/>
     </g>
     <g id="line2d_7">
      <g>
       <use style="fill:#555555;stroke:#555555;stroke-width:0.8;" x="96.84548" xlink:href="#m1056975cc5" y="287.115119"/>
      </g>
     </g>
    </g>
    <g id="xtick_4">
     <g id="line2d_8">
      <path clip-path="url(#p11b71a6049)" d="M 262.90455 287.115119 
L 262.90455 224.727851 
" style="fill:none;stroke:#ffffff;stroke-linecap:square;stroke-width:0.8;"/>
     </g>
     <g id="line2d_9">
      <g>
       <use style="fill:#555555;stroke:#555555;stroke-width:0.8;" x="262.90455" xlink:href="#m1056975cc5" y="287.115119"/>
      </g>
     </g>
    </g>
   </g>
   <g id="matplotlib.axis_4"/>
   <g id="line2d_10">
    <g clip-path="url(#p11b71a6049)">
     <use style="fill:#e24a33;stroke:#e24a33;" x="108.608135" xlink:href="#md6e4999668" y="235.125729"/>
     <use style="fill:#e24a33;stroke:#e24a33;" x="96.20865" xlink:href="#md6e4999668" y="245.523607"/>
     <use style="fill:#e24a33;stroke:#e24a33;" x="94.877779" xlink:href="#md6e4999668" y="255.921485"/>
     <use style="fill:#e24a33;stroke:#e24a33;" x="93.812964" xlink:href="#md6e4999668" y="266.319363"/>
     <use style="fill:#e24a33;stroke:#e24a33;" x="93.691814" xlink:href="#md6e4999668" y="276.717241"/>
    </g>
   </g>
   <g id="patch_8">
    <path d="M 60.48 287.115119 
L 60.48 224.727851 
" style="fill:none;stroke:#ffffff;stroke-linecap:square;stroke-linejoin:miter;"/>
   </g>
   <g id="patch_9">
    <path d="M 296.116364 287.115119 
L 296.116364 224.727851 
" style="fill:none;stroke:#ffffff;stroke-linecap:square;stroke-linejoin:miter;"/>
   </g>
   <g id="patch_10">
    <path d="M 60.48 287.115119 
L 296.116364 287.115119 
" style="fill:none;stroke:#ffffff;stroke-linecap:square;stroke-linejoin:miter;"/>
   </g>
   <g id="patch_11">
    <path d="M 60.48 224.727851 
L 296.116364 224.727851 
" style="fill:none;stroke:#ffffff;stroke-linecap:square;stroke-linejoin:miter;"/>
   </g>
  </g>
  <g id="axes_3">
   <g id="patch_12">
    <path d="M 60.48 354.493369 
L 296.116364 354.493369 
L 296.116364 301.018568 
L 60.48 301.018568 
z
" style="fill:#e5e5e5;"/>
   </g>
   <g id="matplotlib.axis_5">
    <g id="xtick_5">
     <g id="line2d_11">
      <path clip-path="url(#ped3cae17e0)" d="M 96.84548 354.493369 
L 96.84548 301.018568 
" style="fill:none;stroke:#ffffff;stroke-linecap:square;stroke-width:0.8;"/>
     </g>
     <g id="line2d_12">
      <g>
       <use style="fill:#555555;stroke:#555555;stroke-width:0.8;" x="96.84548" xlink:href="#m1056975cc5" y="354.493369"/>
      </g>
     </g>
    </g>
    <g id="xtick_6">
     <g id="line2d_13">
      <path clip-path="url(#ped3cae17e0)" d="M 262.90455 354.493369 
L 262.90455 301.018568 
" style="fill:none;stroke:#ffffff;stroke-linecap:square;stroke-width:0.8;"/>
     </g>
     <g id="line2d_14">
      <g>
       <use style="fill:#555555;stroke:#555555;stroke-width:0.8;" x="262.90455" xlink:href="#m1056975cc5" y="354.493369"/>
      </g>
     </g>
    </g>
   </g>
   <g id="matplotlib.axis_6"/>
   <g id="line2d_15">
    <g clip-path="url(#ped3cae17e0)">
     <use style="fill:#e24a33;stroke:#e24a33;" x="95.333874" xlink:href="#md6e4999668" y="311.713528"/>
     <use style="fill:#e24a33;stroke:#e24a33;" x="98.591468" xlink:href="#md6e4999668" y="322.408488"/>
     <use style="fill:#e24a33;stroke:#e24a33;" x="101.965858" xlink:href="#md6e4999668" y="333.103448"/>
     <use style="fill:#e24a33;stroke:#e24a33;" x="94.614297" xlink:href="#md6e4999668" y="343.798408"/>
    </g>
   </g>
   <g id="patch_13">
    <path d="M 60.48 354.493369 
L 60.48 301.018568 
" style="fill:none;stroke:#ffffff;stroke-linecap:square;stroke-linejoin:miter;"/>
   </g>
   <g id="patch_14">
    <path d="M 296.116364 354.493369 
L 296.116364 301.018568 
" style="fill:none;stroke:#ffffff;stroke-linecap:square;stroke-linejoin:miter;"/>
   </g>
   <g id="patch_15">
    <path d="M 60.48 354.493369 
L 296.116364 354.493369 
" style="fill:none;stroke:#ffffff;stroke-linecap:square;stroke-linejoin:miter;"/>
   </g>
   <g id="patch_16">
    <path d="M 60.48 301.018568 
L 296.116364 301.018568 
" style="fill:none;stroke:#ffffff;stroke-linecap:square;stroke-linejoin:miter;"/>
   </g>
  </g>
  <g id="axes_4">
   <g id="patch_17">
    <path d="M 60.48 412.959151 
L 296.116364 412.959151 
L 296.116364 368.396817 
L 60.48 368.396817 
z
" style="fill:#e5e5e5;"/>
   </g>
   <g id="matplotlib.axis_7">
    <g id="xtick_7">
     <g id="line2d_16">
      <path clip-path="url(#p4c1955757c)" d="M 96.84548 412.959151 
L 96.84548 368.396817 
" style="fill:none;stroke:#ffffff;stroke-linecap:square;stroke-width:0.8;"/>
     </g>
     <g id="line2d_17">
      <g>
       <use style="fill:#555555;stroke:#555555;stroke-width:0.8;" x="96.84548" xlink:href="#m1056975cc5" y="412.959151"/>
      </g>
     </g>
    </g>
    <g id="xtick_8">
     <g id="line2d_18">
      <path clip-path="url(#p4c1955757c)" d="M 262.90455 412.959151 
L 262.90455 368.396817 
" style="fill:none;stroke:#ffffff;stroke-linecap:square;stroke-width:0.8;"/>
     </g>
     <g id="line2d_19">
      <g>
       <use style="fill:#555555;stroke:#555555;stroke-width:0.8;" x="262.90455" xlink:href="#m1056975cc5" y="412.959151"/>
      </g>
     </g>
    </g>
   </g>
   <g id="matplotlib.axis_8"/>
   <g id="line2d_20">
    <g clip-path="url(#p4c1955757c)">
     <use style="fill:#e24a33;stroke:#e24a33;" x="106.204531" xlink:href="#md6e4999668" y="379.537401"/>
     <use style="fill:#e24a33;stroke:#e24a33;" x="102.539144" xlink:href="#md6e4999668" y="390.677984"/>
     <use style="fill:#e24a33;stroke:#e24a33;" x="103.966815" xlink:href="#md6e4999668" y="401.818568"/>
    </g>
   </g>
   <g id="patch_18">
    <path d="M 60.48 412.959151 
L 60.48 368.396817 
" style="fill:none;stroke:#ffffff;stroke-linecap:square;stroke-linejoin:miter;"/>
   </g>
   <g id="patch_19">
    <path d="M 296.116364 412.959151 
L 296.116364 368.396817 
" style="fill:none;stroke:#ffffff;stroke-linecap:square;stroke-linejoin:miter;"/>
   </g>
   <g id="patch_20">
    <path d="M 60.48 412.959151 
L 296.116364 412.959151 
" style="fill:none;stroke:#ffffff;stroke-linecap:square;stroke-linejoin:miter;"/>
   </g>
   <g id="patch_21">
    <path d="M 60.48 368.396817 
L 296.116364 368.396817 
" style="fill:none;stroke:#ffffff;stroke-linecap:square;stroke-linejoin:miter;"/>
   </g>
  </g>
  <g id="axes_5">
   <g id="patch_22">
    <path d="M 60.48 453.6 
L 296.116364 453.6 
L 296.116364 426.862599 
L 60.48 426.862599 
z
" style="fill:#e5e5e5;"/>
   </g>
   <g id="matplotlib.axis_9">
    <g id="xtick_9">
     <g id="line2d_21">
      <path clip-path="url(#pd6cf4890e5)" d="M 96.84548 453.6 
L 96.84548 426.862599 
" style="fill:none;stroke:#ffffff;stroke-linecap:square;stroke-width:0.8;"/>
     </g>
     <g id="line2d_22">
      <g>
       <use style="fill:#555555;stroke:#555555;stroke-width:0.8;" x="96.84548" xlink:href="#m1056975cc5" y="453.6"/>
      </g>
     </g>
     <g id="text_2">
      <!-- 1.0 -->
      <defs>
       <path d="M 26.59375 63.40625 
C 26.59375 65.5 26.5 65.5 25.09375 65.5 
C 21.203125 61.1875 15.296875 59.796875 9.703125 59.796875 
C 9.40625 59.796875 8.90625 59.796875 8.796875 59.5 
C 8.703125 59.296875 8.703125 59.09375 8.703125 57 
C 11.796875 57 17 57.59375 21 59.984375 
L 21 7.203125 
C 21 3.6875 20.796875 2.5 12.203125 2.5 
L 9.203125 2.5 
L 9.203125 0 
C 14 0 19 0 23.796875 0 
C 28.59375 0 33.59375 0 38.40625 0 
L 38.40625 2.5 
L 35.40625 2.5 
C 26.796875 2.5 26.59375 3.59375 26.59375 7.15625 
z
" id="CMR17-49"/>
       <path d="M 42 31.640625 
C 42 37.75 41.90625 48.125 37.703125 56.109375 
C 34 63.109375 28.09375 65.59375 22.90625 65.59375 
C 18.09375 65.59375 12 63.40625 8.203125 56.203125 
C 4.203125 48.71875 3.796875 39.4375 3.796875 31.640625 
C 3.796875 25.953125 3.90625 17.28125 7 9.671875 
C 11.296875 -0.609375 19 -2 22.90625 -2 
C 27.5 -2 34.5 -0.109375 38.59375 9.375 
C 41.59375 16.28125 42 24.359375 42 31.640625 
z
M 22.90625 -0.40625 
C 16.5 -0.40625 12.703125 5.078125 11.296875 12.6875 
C 10.203125 18.5625 10.203125 27.15625 10.203125 32.75 
C 10.203125 40.4375 10.203125 46.828125 11.5 52.921875 
C 13.40625 61.390625 19 64 22.90625 64 
C 27 64 32.296875 61.296875 34.203125 53.125 
C 35.5 47.4375 35.59375 40.734375 35.59375 32.75 
C 35.59375 26.25 35.59375 18.265625 34.40625 12.375 
C 32.296875 1.484375 26.40625 -0.40625 22.90625 -0.40625 
z
" id="CMR17-48"/>
      </defs>
      <g style="fill:#555555;" transform="translate(86.873719 471.669588)scale(0.16 -0.16)">
       <use transform="scale(0.996264)" xlink:href="#CMR17-49"/>
       <use transform="translate(45.690477 0)scale(0.996264)" xlink:href="#CMR17-46"/>
       <use transform="translate(70.561536 0)scale(0.996264)" xlink:href="#CMR17-48"/>
      </g>
     </g>
    </g>
    <g id="xtick_10">
     <g id="line2d_23">
      <path clip-path="url(#pd6cf4890e5)" d="M 262.90455 453.6 
L 262.90455 426.862599 
" style="fill:none;stroke:#ffffff;stroke-linecap:square;stroke-width:0.8;"/>
     </g>
     <g id="line2d_24">
      <g>
       <use style="fill:#555555;stroke:#555555;stroke-width:0.8;" x="262.90455" xlink:href="#m1056975cc5" y="453.6"/>
      </g>
     </g>
     <g id="text_3">
      <!-- 1.05 -->
      <defs>
       <path d="M 11.40625 57.6875 
C 12.40625 57.28125 16.5 56 20.703125 56 
C 30 56 35.09375 61.109375 38 64.0625 
C 38 64.953125 38 65.5 37.40625 65.5 
C 37.296875 65.5 37.09375 65.5 36.296875 65.046875 
C 32.796875 63.40625 28.703125 62.078125 23.703125 62.078125 
C 20.703125 62.078125 16.203125 62.484375 11.296875 64.671875 
C 10.203125 65.171875 10 65.171875 9.90625 65.171875 
C 9.40625 65.171875 9.296875 65.0625 9.296875 63.078125 
L 9.296875 34.421875 
C 9.296875 32.640625 9.296875 32.140625 10.296875 32.140625 
C 10.796875 32.140625 11 32.34375 11.5 33.03125 
C 14.703125 37.515625 19.09375 39.40625 24.09375 39.40625 
C 27.59375 39.40625 35.09375 37.21875 35.09375 20.140625 
C 35.09375 16.953125 35.09375 11.171875 32.09375 6.578125 
C 29.59375 2.484375 25.703125 0.390625 21.40625 0.390625 
C 14.796875 0.390625 8.09375 5 6.296875 12.71875 
C 6.703125 12.609375 7.5 12.421875 7.90625 12.421875 
C 9.203125 12.421875 11.703125 13.125 11.703125 16.21875 
C 11.703125 18.90625 9.796875 20 7.90625 20 
C 5.59375 20 4.09375 18.59375 4.09375 15.796875 
C 4.09375 7.09375 11 -2 21.59375 -2 
C 31.90625 -2 41.703125 6.875 41.703125 19.75 
C 41.703125 31.71875 33.90625 41 24.203125 41 
C 19.09375 41 14.796875 39.109375 11.40625 35.53125 
z
" id="CMR17-53"/>
      </defs>
      <g style="fill:#555555;" transform="translate(249.030795 471.669588)scale(0.16 -0.16)">
       <use transform="scale(0.996264)" xlink:href="#CMR17-49"/>
       <use transform="translate(45.690477 0)scale(0.996264)" xlink:href="#CMR17-46"/>
       <use transform="translate(70.561536 0)scale(0.996264)" xlink:href="#CMR17-48"/>
       <use transform="translate(116.252013 0)scale(0.996264)" xlink:href="#CMR17-53"/>
      </g>
     </g>
    </g>
   </g>
   <g id="matplotlib.axis_10"/>
   <g id="line2d_25">
    <g clip-path="url(#pd6cf4890e5)">
     <use style="fill:#e24a33;stroke:#e24a33;" x="105.339455" xlink:href="#md6e4999668" y="440.2313"/>
    </g>
   </g>
   <g id="patch_23">
    <path d="M 60.48 453.6 
L 60.48 426.862599 
" style="fill:none;stroke:#ffffff;stroke-linecap:square;stroke-linejoin:miter;"/>
   </g>
   <g id="patch_24">
    <path d="M 296.116364 453.6 
L 296.116364 426.862599 
" style="fill:none;stroke:#ffffff;stroke-linecap:square;stroke-linejoin:miter;"/>
   </g>
   <g id="patch_25">
    <path d="M 60.48 453.6 
L 296.116364 453.6 
" style="fill:none;stroke:#ffffff;stroke-linecap:square;stroke-linejoin:miter;"/>
   </g>
   <g id="patch_26">
    <path d="M 60.48 426.862599 
L 296.116364 426.862599 
" style="fill:none;stroke:#ffffff;stroke-linecap:square;stroke-linejoin:miter;"/>
   </g>
  </g>
  <g id="axes_6">
   <g id="patch_27">
    <path d="M 331.461818 210.824403 
L 567.098182 210.824403 
L 567.098182 50.4 
L 331.461818 50.4 
z
" style="fill:#e5e5e5;"/>
   </g>
   <g id="matplotlib.axis_11">
    <g id="xtick_11">
     <g id="line2d_26">
      <path clip-path="url(#pb2d22dc43a)" d="M 367.20057 210.824403 
L 367.20057 50.4 
" style="fill:none;stroke:#ffffff;stroke-linecap:square;stroke-width:0.8;"/>
     </g>
     <g id="line2d_27">
      <g>
       <use style="fill:#555555;stroke:#555555;stroke-width:0.8;" x="367.20057" xlink:href="#m1056975cc5" y="210.824403"/>
      </g>
     </g>
    </g>
    <g id="xtick_12">
     <g id="line2d_28">
      <path clip-path="url(#pb2d22dc43a)" d="M 533.781913 210.824403 
L 533.781913 50.4 
" style="fill:none;stroke:#ffffff;stroke-linecap:square;stroke-width:0.8;"/>
     </g>
     <g id="line2d_29">
      <g>
       <use style="fill:#555555;stroke:#555555;stroke-width:0.8;" x="533.781913" xlink:href="#m1056975cc5" y="210.824403"/>
      </g>
     </g>
    </g>
   </g>
   <g id="matplotlib.axis_12"/>
   <g id="line2d_30">
    <g clip-path="url(#pb2d22dc43a)">
     <use style="fill:#e24a33;stroke:#e24a33;" x="373.189358" xlink:href="#md6e4999668" y="59.83673"/>
     <use style="fill:#e24a33;stroke:#e24a33;" x="374.099651" xlink:href="#md6e4999668" y="69.273459"/>
     <use style="fill:#e24a33;stroke:#e24a33;" x="376.158136" xlink:href="#md6e4999668" y="78.710189"/>
     <use style="fill:#e24a33;stroke:#e24a33;" x="364.778087" xlink:href="#md6e4999668" y="88.146918"/>
     <use style="fill:#e24a33;stroke:#e24a33;" x="377.47949" xlink:href="#md6e4999668" y="97.583648"/>
     <use style="fill:#e24a33;stroke:#e24a33;" x="379.289352" xlink:href="#md6e4999668" y="107.020378"/>
     <use style="fill:#e24a33;stroke:#e24a33;" x="378.437045" xlink:href="#md6e4999668" y="116.457107"/>
     <use style="fill:#e24a33;stroke:#e24a33;" x="365.284864" xlink:href="#md6e4999668" y="125.893837"/>
     <use style="fill:#e24a33;stroke:#e24a33;" x="380.528097" xlink:href="#md6e4999668" y="135.330566"/>
     <use style="fill:#e24a33;stroke:#e24a33;" x="372.582099" xlink:href="#md6e4999668" y="144.767296"/>
     <use style="fill:#e24a33;stroke:#e24a33;" x="370.750393" xlink:href="#md6e4999668" y="154.204026"/>
     <use style="fill:#e24a33;stroke:#e24a33;" x="365.854194" xlink:href="#md6e4999668" y="163.640755"/>
     <use style="fill:#e24a33;stroke:#e24a33;" x="370.792095" xlink:href="#md6e4999668" y="173.077485"/>
     <use style="fill:#e24a33;stroke:#e24a33;" x="366.504744" xlink:href="#md6e4999668" y="182.514214"/>
     <use style="fill:#e24a33;stroke:#e24a33;" x="364.969518" xlink:href="#md6e4999668" y="191.950944"/>
     <use style="fill:#e24a33;stroke:#e24a33;" x="365.477289" xlink:href="#md6e4999668" y="201.387674"/>
    </g>
   </g>
   <g id="patch_28">
    <path d="M 331.461818 210.824403 
L 331.461818 50.4 
" style="fill:none;stroke:#ffffff;stroke-linecap:square;stroke-linejoin:miter;"/>
   </g>
   <g id="patch_29">
    <path d="M 567.098182 210.824403 
L 567.098182 50.4 
" style="fill:none;stroke:#ffffff;stroke-linecap:square;stroke-linejoin:miter;"/>
   </g>
   <g id="patch_30">
    <path d="M 331.461818 210.824403 
L 567.098182 210.824403 
" style="fill:none;stroke:#ffffff;stroke-linecap:square;stroke-linejoin:miter;"/>
   </g>
   <g id="patch_31">
    <path d="M 331.461818 50.4 
L 567.098182 50.4 
" style="fill:none;stroke:#ffffff;stroke-linecap:square;stroke-linejoin:miter;"/>
   </g>
   <g id="text_4">
    <!-- rotavirus -->
    <defs>
     <path d="M 15 23.390625 
C 15 33 19.09375 42 26.59375 42 
C 27.296875 42 28 41.90625 28.703125 41.59375 
C 28.703125 41.59375 26.5 40.890625 26.5 38.3125 
C 26.5 35.90625 28.40625 34.90625 29.90625 34.90625 
C 31.09375 34.90625 33.296875 35.609375 33.296875 38.40625 
C 33.296875 41.609375 30.09375 43.59375 26.703125 43.59375 
C 19.09375 43.59375 15.796875 36.203125 14.796875 32.703125 
L 14.703125 32.703125 
L 14.703125 43.59375 
L 3.09375 42.5 
L 3.09375 39.90625 
C 9 39.90625 9.90625 39.296875 9.90625 34.5 
L 9.90625 6.6875 
C 9.90625 2.875 9.5 2.390625 3.09375 2.390625 
L 3.09375 -0.203125 
C 5.5 0 10.09375 0 12.703125 0 
C 15.59375 0 20.703125 0 23.40625 -0.203125 
L 23.40625 2.390625 
C 16.203125 2.390625 15 2.390625 15 6.875 
z
" id="CMR17-114"/>
     <path d="M 15.09375 40 
L 29.09375 40 
L 29.09375 42.578125 
L 15.09375 42.578125 
L 15.09375 61 
L 13.296875 61 
C 13.09375 50.703125 9.59375 41.6875 1.09375 41.6875 
L 1.09375 40 
L 9.796875 40 
L 9.796875 12.046875 
C 9.796875 10.15625 9.796875 -1 21.40625 -1 
C 27.296875 -1 30.703125 4.78125 30.703125 12.140625 
L 30.703125 17.8125 
L 28.90625 17.8125 
L 28.90625 12.234375 
C 28.90625 5.375 26.203125 0.796875 22 0.796875 
C 19.09375 0.796875 15.09375 2.78125 15.09375 11.84375 
z
" id="CMR17-116"/>
     <path d="M 39.09375 33.796875 
C 40 36 41.59375 40 47.40625 40 
L 47.40625 42.59375 
C 45.5 42.59375 43 42.59375 41.09375 42.59375 
C 39 42.59375 35.703125 42.59375 33.703125 42.6875 
L 33.703125 40.09375 
C 36.203125 39.890625 37.59375 38.703125 37.59375 36.109375 
C 37.59375 35.203125 37.59375 35 37 33.609375 
L 26 5.890625 
L 14.09375 35.71875 
C 13.5 37.015625 13.5 37.203125 13.5 37.609375 
C 13.5 40 16.796875 40 18.296875 40 
L 18.296875 42.6875 
C 15.90625 42.59375 11.5 42.59375 9 42.59375 
C 6.296875 42.59375 3.203125 42.59375 1 42.6875 
L 1 40 
C 4.796875 40 6.90625 40 8.09375 36.90625 
L 22.59375 0.6875 
C 23.203125 -0.796875 23.296875 -1 24.203125 -1 
C 25.09375 -1 25.203125 -0.796875 25.796875 0.6875 
z
" id="CMR17-118"/>
     <path d="M 15.5 61.078125 
C 15.5 63.265625 13.703125 65.15625 11.40625 65.15625 
C 9.203125 65.15625 7.296875 63.375 7.296875 61.078125 
C 7.296875 58.890625 9.09375 57 11.40625 57 
C 13.59375 57 15.5 58.796875 15.5 61.078125 
z
M 3.796875 42.28125 
L 3.796875 39.703125 
C 9.40625 39.703125 10.203125 39.09375 10.203125 34.328125 
L 10.203125 6.671875 
C 10.203125 2.875 9.796875 2.390625 3.40625 2.390625 
L 3.40625 -0.203125 
C 5.796875 0 10.09375 0 12.59375 0 
C 15 0 19.09375 0 21.40625 -0.203125 
L 21.40625 2.390625 
C 15.5 2.390625 15.296875 2.984375 15.296875 6.5625 
L 15.296875 43.375 
z
" id="CMR17-105"/>
     <path d="M 29.40625 42.078125 
L 29.40625 39.5 
C 35.296875 39.5 36.203125 38.890625 36.203125 34.15625 
L 36.203125 16.125 
C 36.203125 7.8125 31.703125 0.59375 24.296875 0.59375 
C 16.09375 0.59375 15.40625 5.4375 15.40625 10.59375 
L 15.40625 43.171875 
L 3.296875 42.078125 
L 3.296875 39.5 
C 7.296875 39.5 10 39.5 10.09375 35.53125 
L 10.09375 16.53125 
C 10.09375 9.890625 10.09375 5.640625 12.703125 2.859375 
C 14 1.578125 16.5 -1 23.703125 -1 
C 32.203125 -1 35.5 5.890625 36.296875 7.90625 
L 36.40625 7.90625 
L 36.40625 -0.984375 
L 48.296875 -0.984375 
L 48.296875 2 
C 42.40625 2 41.5 2.59375 41.5 7.390625 
L 41.5 43.171875 
z
" id="CMR17-117"/>
     <path d="M 30.90625 42.140625 
C 30.90625 43.953125 30.796875 44.046875 30.203125 44.046875 
C 29.796875 44.046875 29.703125 43.953125 28.5 42.453125 
C 28.203125 42.046875 27.296875 41.03125 27 40.640625 
C 23.796875 44.046875 19.296875 44.046875 17.59375 44.046875 
C 6.5 44.046875 2.5 38.234375 2.5 32.4375 
C 2.5 23.40625 12.703125 21.328125 15.59375 20.703125 
C 21.90625 19.421875 24.09375 19.015625 26.203125 17.203125 
C 27.5 16.015625 29.703125 13.8125 29.703125 10.21875 
C 29.703125 6 27.296875 0.59375 18.09375 0.59375 
C 9.40625 0.59375 6.296875 7.1875 4.5 15.953125 
C 4.203125 17.34375 4.203125 17.453125 3.40625 17.453125 
C 2.59375 17.453125 2.5 17.34375 2.5 15.359375 
L 2.5 0.984375 
C 2.5 -0.796875 2.59375 -0.90625 3.203125 -0.90625 
C 3.703125 -0.90625 3.796875 -0.796875 4.296875 0 
C 4.90625 0.890625 6.40625 3.296875 7 4.3125 
C 9 1.609375 12.5 -1 18.09375 -1 
C 28 -1 33.296875 4.421875 33.296875 12.25 
C 33.296875 17.375 30.59375 20.078125 29.296875 21.28125 
C 26.296875 24.390625 22.796875 25.09375 18.59375 25.890625 
C 13.09375 27.109375 6.09375 28.515625 6.09375 34.640625 
C 6.09375 37.234375 7.5 42.765625 17.59375 42.765625 
C 28.296875 42.765625 28.90625 32.71875 29.09375 29.5 
C 29.203125 29 29.703125 28.890625 30 28.890625 
C 30.90625 28.890625 30.90625 29.203125 30.90625 30.90625 
z
" id="CMR17-115"/>
    </defs>
    <g transform="translate(410.287071 44.4)scale(0.22 -0.22)">
     <use transform="scale(0.996264)" xlink:href="#CMR17-114"/>
     <use transform="translate(35.280768 0)scale(0.996264)" xlink:href="#CMR17-111"/>
     <use transform="translate(80.971245 0)scale(0.996264)" xlink:href="#CMR17-116"/>
     <use transform="translate(116.252013 0)scale(0.996264)" xlink:href="#CMR17-97"/>
     <use transform="translate(159.340036 0)scale(0.996264)" xlink:href="#CMR17-118"/>
     <use transform="translate(207.632952 0)scale(0.996264)" xlink:href="#CMR17-105"/>
     <use transform="translate(232.50401 0)scale(0.996264)" xlink:href="#CMR17-114"/>
     <use transform="translate(267.784778 0)scale(0.996264)" xlink:href="#CMR17-117"/>
     <use transform="translate(318.680148 0)scale(0.996264)" xlink:href="#CMR17-115"/>
    </g>
   </g>
  </g>
  <g id="axes_7">
   <g id="patch_32">
    <path d="M 331.461818 287.115119 
L 567.098182 287.115119 
L 567.098182 224.727851 
L 331.461818 224.727851 
z
" style="fill:#e5e5e5;"/>
   </g>
   <g id="matplotlib.axis_13">
    <g id="xtick_13">
     <g id="line2d_31">
      <path clip-path="url(#p44f0343202)" d="M 367.20057 287.115119 
L 367.20057 224.727851 
" style="fill:none;stroke:#ffffff;stroke-linecap:square;stroke-width:0.8;"/>
     </g>
     <g id="line2d_32">
      <g>
       <use style="fill:#555555;stroke:#555555;stroke-width:0.8;" x="367.20057" xlink:href="#m1056975cc5" y="287.115119"/>
      </g>
     </g>
    </g>
    <g id="xtick_14">
     <g id="line2d_33">
      <path clip-path="url(#p44f0343202)" d="M 533.781913 287.115119 
L 533.781913 224.727851 
" style="fill:none;stroke:#ffffff;stroke-linecap:square;stroke-width:0.8;"/>
     </g>
     <g id="line2d_34">
      <g>
       <use style="fill:#555555;stroke:#555555;stroke-width:0.8;" x="533.781913" xlink:href="#m1056975cc5" y="287.115119"/>
      </g>
     </g>
    </g>
   </g>
   <g id="matplotlib.axis_14"/>
   <g id="line2d_35">
    <g clip-path="url(#p44f0343202)">
     <use style="fill:#e24a33;stroke:#e24a33;" x="368.34201" xlink:href="#md6e4999668" y="235.125729"/>
     <use style="fill:#e24a33;stroke:#e24a33;" x="364.807675" xlink:href="#md6e4999668" y="245.523607"/>
     <use style="fill:#e24a33;stroke:#e24a33;" x="367.241874" xlink:href="#md6e4999668" y="255.921485"/>
     <use style="fill:#e24a33;stroke:#e24a33;" x="365.354566" xlink:href="#md6e4999668" y="266.319363"/>
     <use style="fill:#e24a33;stroke:#e24a33;" x="365.781514" xlink:href="#md6e4999668" y="276.717241"/>
    </g>
   </g>
   <g id="patch_33">
    <path d="M 331.461818 287.115119 
L 331.461818 224.727851 
" style="fill:none;stroke:#ffffff;stroke-linecap:square;stroke-linejoin:miter;"/>
   </g>
   <g id="patch_34">
    <path d="M 567.098182 287.115119 
L 567.098182 224.727851 
" style="fill:none;stroke:#ffffff;stroke-linecap:square;stroke-linejoin:miter;"/>
   </g>
   <g id="patch_35">
    <path d="M 331.461818 287.115119 
L 567.098182 287.115119 
" style="fill:none;stroke:#ffffff;stroke-linecap:square;stroke-linejoin:miter;"/>
   </g>
   <g id="patch_36">
    <path d="M 331.461818 224.727851 
L 567.098182 224.727851 
" style="fill:none;stroke:#ffffff;stroke-linecap:square;stroke-linejoin:miter;"/>
   </g>
  </g>
  <g id="axes_8">
   <g id="patch_37">
    <path d="M 331.461818 354.493369 
L 567.098182 354.493369 
L 567.098182 301.018568 
L 331.461818 301.018568 
z
" style="fill:#e5e5e5;"/>
   </g>
   <g id="matplotlib.axis_15">
    <g id="xtick_15">
     <g id="line2d_36">
      <path clip-path="url(#pa6c90211ac)" d="M 367.20057 354.493369 
L 367.20057 301.018568 
" style="fill:none;stroke:#ffffff;stroke-linecap:square;stroke-width:0.8;"/>
     </g>
     <g id="line2d_37">
      <g>
       <use style="fill:#555555;stroke:#555555;stroke-width:0.8;" x="367.20057" xlink:href="#m1056975cc5" y="354.493369"/>
      </g>
     </g>
    </g>
    <g id="xtick_16">
     <g id="line2d_38">
      <path clip-path="url(#pa6c90211ac)" d="M 533.781913 354.493369 
L 533.781913 301.018568 
" style="fill:none;stroke:#ffffff;stroke-linecap:square;stroke-width:0.8;"/>
     </g>
     <g id="line2d_39">
      <g>
       <use style="fill:#555555;stroke:#555555;stroke-width:0.8;" x="533.781913" xlink:href="#m1056975cc5" y="354.493369"/>
      </g>
     </g>
    </g>
   </g>
   <g id="matplotlib.axis_16"/>
   <g id="line2d_40">
    <g clip-path="url(#pa6c90211ac)">
     <use style="fill:#e24a33;stroke:#e24a33;" x="367.042698" xlink:href="#md6e4999668" y="311.713528"/>
     <use style="fill:#e24a33;stroke:#e24a33;" x="367.919431" xlink:href="#md6e4999668" y="322.408488"/>
     <use style="fill:#e24a33;stroke:#e24a33;" x="370.828634" xlink:href="#md6e4999668" y="333.103448"/>
     <use style="fill:#e24a33;stroke:#e24a33;" x="365.777344" xlink:href="#md6e4999668" y="343.798408"/>
    </g>
   </g>
   <g id="patch_38">
    <path d="M 331.461818 354.493369 
L 331.461818 301.018568 
" style="fill:none;stroke:#ffffff;stroke-linecap:square;stroke-linejoin:miter;"/>
   </g>
   <g id="patch_39">
    <path d="M 567.098182 354.493369 
L 567.098182 301.018568 
" style="fill:none;stroke:#ffffff;stroke-linecap:square;stroke-linejoin:miter;"/>
   </g>
   <g id="patch_40">
    <path d="M 331.461818 354.493369 
L 567.098182 354.493369 
" style="fill:none;stroke:#ffffff;stroke-linecap:square;stroke-linejoin:miter;"/>
   </g>
   <g id="patch_41">
    <path d="M 331.461818 301.018568 
L 567.098182 301.018568 
" style="fill:none;stroke:#ffffff;stroke-linecap:square;stroke-linejoin:miter;"/>
   </g>
  </g>
  <g id="axes_9">
   <g id="patch_42">
    <path d="M 331.461818 412.959151 
L 567.098182 412.959151 
L 567.098182 368.396817 
L 331.461818 368.396817 
z
" style="fill:#e5e5e5;"/>
   </g>
   <g id="matplotlib.axis_17">
    <g id="xtick_17">
     <g id="line2d_41">
      <path clip-path="url(#pfce766b7f2)" d="M 367.20057 412.959151 
L 367.20057 368.396817 
" style="fill:none;stroke:#ffffff;stroke-linecap:square;stroke-width:0.8;"/>
     </g>
     <g id="line2d_42">
      <g>
       <use style="fill:#555555;stroke:#555555;stroke-width:0.8;" x="367.20057" xlink:href="#m1056975cc5" y="412.959151"/>
      </g>
     </g>
    </g>
    <g id="xtick_18">
     <g id="line2d_43">
      <path clip-path="url(#pfce766b7f2)" d="M 533.781913 412.959151 
L 533.781913 368.396817 
" style="fill:none;stroke:#ffffff;stroke-linecap:square;stroke-width:0.8;"/>
     </g>
     <g id="line2d_44">
      <g>
       <use style="fill:#555555;stroke:#555555;stroke-width:0.8;" x="533.781913" xlink:href="#m1056975cc5" y="412.959151"/>
      </g>
     </g>
    </g>
   </g>
   <g id="matplotlib.axis_18"/>
   <g id="line2d_45">
    <g clip-path="url(#pfce766b7f2)">
     <use style="fill:#e24a33;stroke:#e24a33;" x="383.473442" xlink:href="#md6e4999668" y="379.537401"/>
     <use style="fill:#e24a33;stroke:#e24a33;" x="378.343712" xlink:href="#md6e4999668" y="390.677984"/>
     <use style="fill:#e24a33;stroke:#e24a33;" x="372.007408" xlink:href="#md6e4999668" y="401.818568"/>
    </g>
   </g>
   <g id="patch_43">
    <path d="M 331.461818 412.959151 
L 331.461818 368.396817 
" style="fill:none;stroke:#ffffff;stroke-linecap:square;stroke-linejoin:miter;"/>
   </g>
   <g id="patch_44">
    <path d="M 567.098182 412.959151 
L 567.098182 368.396817 
" style="fill:none;stroke:#ffffff;stroke-linecap:square;stroke-linejoin:miter;"/>
   </g>
   <g id="patch_45">
    <path d="M 331.461818 412.959151 
L 567.098182 412.959151 
" style="fill:none;stroke:#ffffff;stroke-linecap:square;stroke-linejoin:miter;"/>
   </g>
   <g id="patch_46">
    <path d="M 331.461818 368.396817 
L 567.098182 368.396817 
" style="fill:none;stroke:#ffffff;stroke-linecap:square;stroke-linejoin:miter;"/>
   </g>
  </g>
  <g id="axes_10">
   <g id="patch_47">
    <path d="M 331.461818 453.6 
L 567.098182 453.6 
L 567.098182 426.862599 
L 331.461818 426.862599 
z
" style="fill:#e5e5e5;"/>
   </g>
   <g id="matplotlib.axis_19">
    <g id="xtick_19">
     <g id="line2d_46">
      <path clip-path="url(#p15c0be9154)" d="M 367.20057 453.6 
L 367.20057 426.862599 
" style="fill:none;stroke:#ffffff;stroke-linecap:square;stroke-width:0.8;"/>
     </g>
     <g id="line2d_47">
      <g>
       <use style="fill:#555555;stroke:#555555;stroke-width:0.8;" x="367.20057" xlink:href="#m1056975cc5" y="453.6"/>
      </g>
     </g>
     <g id="text_5">
      <!-- 1.0 -->
      <g style="fill:#555555;" transform="translate(357.228808 471.669588)scale(0.16 -0.16)">
       <use transform="scale(0.996264)" xlink:href="#CMR17-49"/>
       <use transform="translate(45.690477 0)scale(0.996264)" xlink:href="#CMR17-46"/>
       <use transform="translate(70.561536 0)scale(0.996264)" xlink:href="#CMR17-48"/>
      </g>
     </g>
    </g>
    <g id="xtick_20">
     <g id="line2d_48">
      <path clip-path="url(#p15c0be9154)" d="M 533.781913 453.6 
L 533.781913 426.862599 
" style="fill:none;stroke:#ffffff;stroke-linecap:square;stroke-width:0.8;"/>
     </g>
     <g id="line2d_49">
      <g>
       <use style="fill:#555555;stroke:#555555;stroke-width:0.8;" x="533.781913" xlink:href="#m1056975cc5" y="453.6"/>
      </g>
     </g>
     <g id="text_6">
      <!-- 1.05 -->
      <g style="fill:#555555;" transform="translate(519.908158 471.669588)scale(0.16 -0.16)">
       <use transform="scale(0.996264)" xlink:href="#CMR17-49"/>
       <use transform="translate(45.690477 0)scale(0.996264)" xlink:href="#CMR17-46"/>
       <use transform="translate(70.561536 0)scale(0.996264)" xlink:href="#CMR17-48"/>
       <use transform="translate(116.252013 0)scale(0.996264)" xlink:href="#CMR17-53"/>
      </g>
     </g>
    </g>
   </g>
   <g id="matplotlib.axis_20"/>
   <g id="line2d_50">
    <g clip-path="url(#p15c0be9154)">
     <use style="fill:#e24a33;stroke:#e24a33;" x="368.713355" xlink:href="#md6e4999668" y="440.2313"/>
    </g>
   </g>
   <g id="patch_48">
    <path d="M 331.461818 453.6 
L 331.461818 426.862599 
" style="fill:none;stroke:#ffffff;stroke-linecap:square;stroke-linejoin:miter;"/>
   </g>
   <g id="patch_49">
    <path d="M 567.098182 453.6 
L 567.098182 426.862599 
" style="fill:none;stroke:#ffffff;stroke-linecap:square;stroke-linejoin:miter;"/>
   </g>
   <g id="patch_50">
    <path d="M 331.461818 453.6 
L 567.098182 453.6 
" style="fill:none;stroke:#ffffff;stroke-linecap:square;stroke-linejoin:miter;"/>
   </g>
   <g id="patch_51">
    <path d="M 331.461818 426.862599 
L 567.098182 426.862599 
" style="fill:none;stroke:#ffffff;stroke-linecap:square;stroke-linejoin:miter;"/>
   </g>
  </g>
  <g id="axes_11">
   <g id="patch_52">
    <path d="M 602.443636 210.824403 
L 838.08 210.824403 
L 838.08 50.4 
L 602.443636 50.4 
z
" style="fill:#e5e5e5;"/>
   </g>
   <g id="matplotlib.axis_21">
    <g id="xtick_21">
     <g id="line2d_51">
      <path clip-path="url(#p8949e18938)" d="M 620.058322 210.824403 
L 620.058322 50.4 
" style="fill:none;stroke:#ffffff;stroke-linecap:square;stroke-width:0.8;"/>
     </g>
     <g id="line2d_52">
      <g>
       <use style="fill:#555555;stroke:#555555;stroke-width:0.8;" x="620.058322" xlink:href="#m1056975cc5" y="210.824403"/>
      </g>
     </g>
    </g>
    <g id="xtick_22">
     <g id="line2d_53">
      <path clip-path="url(#p8949e18938)" d="M 700.143827 210.824403 
L 700.143827 50.4 
" style="fill:none;stroke:#ffffff;stroke-linecap:square;stroke-width:0.8;"/>
     </g>
     <g id="line2d_54">
      <g>
       <use style="fill:#555555;stroke:#555555;stroke-width:0.8;" x="700.143827" xlink:href="#m1056975cc5" y="210.824403"/>
      </g>
     </g>
    </g>
   </g>
   <g id="matplotlib.axis_22"/>
   <g id="line2d_55">
    <g clip-path="url(#p8949e18938)">
     <use style="fill:#e24a33;stroke:#e24a33;" x="624.266993" xlink:href="#md6e4999668" y="59.83673"/>
     <use style="fill:#e24a33;stroke:#e24a33;" x="626.097332" xlink:href="#md6e4999668" y="69.273459"/>
     <use style="fill:#e24a33;stroke:#e24a33;" x="620.030922" xlink:href="#md6e4999668" y="78.710189"/>
     <use style="fill:#e24a33;stroke:#e24a33;" x="619.535913" xlink:href="#md6e4999668" y="88.146918"/>
     <use style="fill:#e24a33;stroke:#e24a33;" x="626.722656" xlink:href="#md6e4999668" y="97.583648"/>
     <use style="fill:#e24a33;stroke:#e24a33;" x="625.706862" xlink:href="#md6e4999668" y="107.020378"/>
     <use style="fill:#e24a33;stroke:#e24a33;" x="618.696642" xlink:href="#md6e4999668" y="116.457107"/>
     <use style="fill:#e24a33;stroke:#e24a33;" x="619.738404" xlink:href="#md6e4999668" y="125.893837"/>
     <use style="fill:#e24a33;stroke:#e24a33;" x="624.228805" xlink:href="#md6e4999668" y="135.330566"/>
     <use style="fill:#e24a33;stroke:#e24a33;" x="623.134917" xlink:href="#md6e4999668" y="144.767296"/>
     <use style="fill:#e24a33;stroke:#e24a33;" x="618.460737" xlink:href="#md6e4999668" y="154.204026"/>
     <use style="fill:#e24a33;stroke:#e24a33;" x="619.123772" xlink:href="#md6e4999668" y="163.640755"/>
     <use style="fill:#e24a33;stroke:#e24a33;" x="621.648078" xlink:href="#md6e4999668" y="173.077485"/>
     <use style="fill:#e24a33;stroke:#e24a33;" x="620.487361" xlink:href="#md6e4999668" y="182.514214"/>
     <use style="fill:#e24a33;stroke:#e24a33;" x="619.180576" xlink:href="#md6e4999668" y="191.950944"/>
     <use style="fill:#e24a33;stroke:#e24a33;" x="618.935793" xlink:href="#md6e4999668" y="201.387674"/>
    </g>
   </g>
   <g id="patch_53">
    <path d="M 602.443636 210.824403 
L 602.443636 50.4 
" style="fill:none;stroke:#ffffff;stroke-linecap:square;stroke-linejoin:miter;"/>
   </g>
   <g id="patch_54">
    <path d="M 838.08 210.824403 
L 838.08 50.4 
" style="fill:none;stroke:#ffffff;stroke-linecap:square;stroke-linejoin:miter;"/>
   </g>
   <g id="patch_55">
    <path d="M 602.443636 210.824403 
L 838.08 210.824403 
" style="fill:none;stroke:#ffffff;stroke-linecap:square;stroke-linejoin:miter;"/>
   </g>
   <g id="patch_56">
    <path d="M 602.443636 50.4 
L 838.08 50.4 
" style="fill:none;stroke:#ffffff;stroke-linecap:square;stroke-linejoin:miter;"/>
   </g>
   <g id="text_7">
    <!-- borreliosis -->
    <defs>
     <path d="M 38.09375 23 
C 38.5 23.40625 38.5 23.609375 38.5 24.625 
C 38.5 34.96875 33.09375 44 21.703125 44 
C 11.09375 44 2.703125 33.890625 2.703125 21.609375 
C 2.703125 8.609375 12.203125 -1 22.796875 -1 
C 34 -1 38.40625 9.484375 38.40625 11.5625 
C 38.40625 12.25 37.796875 12.25 37.59375 12.25 
C 36.90625 12.25 36.796875 12.046875 36.40625 10.875 
C 34.203125 4.140625 28.703125 0.796875 23.5 0.796875 
C 19.203125 0.796875 14.90625 3.171875 12.203125 7.5 
C 9.09375 12.546875 9.09375 18.375 9.09375 23 
z
M 9.203125 24.5 
C 9.90625 39.140625 17.59375 42.40625 21.59375 42.40625 
C 28.40625 42.40625 33 35.890625 33.09375 24.5 
z
" id="CMR17-101"/>
    </defs>
    <g transform="translate(676.026258 44.4)scale(0.22 -0.22)">
     <use transform="scale(0.996264)" xlink:href="#CMR17-98"/>
     <use transform="translate(53.497809 0)scale(0.996264)" xlink:href="#CMR17-111"/>
     <use transform="translate(99.188286 0)scale(0.996264)" xlink:href="#CMR17-114"/>
     <use transform="translate(134.469053 0)scale(0.996264)" xlink:href="#CMR17-114"/>
     <use transform="translate(169.749821 0)scale(0.996264)" xlink:href="#CMR17-101"/>
     <use transform="translate(210.235482 0)scale(0.996264)" xlink:href="#CMR17-108"/>
     <use transform="translate(235.10654 0)scale(0.996264)" xlink:href="#CMR17-105"/>
     <use transform="translate(259.977599 0)scale(0.996264)" xlink:href="#CMR17-111"/>
     <use transform="translate(305.668076 0)scale(0.996264)" xlink:href="#CMR17-115"/>
     <use transform="translate(341.469413 0)scale(0.996264)" xlink:href="#CMR17-105"/>
     <use transform="translate(366.340472 0)scale(0.996264)" xlink:href="#CMR17-115"/>
    </g>
   </g>
  </g>
  <g id="axes_12">
   <g id="patch_57">
    <path d="M 602.443636 287.115119 
L 838.08 287.115119 
L 838.08 224.727851 
L 602.443636 224.727851 
z
" style="fill:#e5e5e5;"/>
   </g>
   <g id="matplotlib.axis_23">
    <g id="xtick_23">
     <g id="line2d_56">
      <path clip-path="url(#pe849786b14)" d="M 620.058322 287.115119 
L 620.058322 224.727851 
" style="fill:none;stroke:#ffffff;stroke-linecap:square;stroke-width:0.8;"/>
     </g>
     <g id="line2d_57">
      <g>
       <use style="fill:#555555;stroke:#555555;stroke-width:0.8;" x="620.058322" xlink:href="#m1056975cc5" y="287.115119"/>
      </g>
     </g>
    </g>
    <g id="xtick_24">
     <g id="line2d_58">
      <path clip-path="url(#pe849786b14)" d="M 700.143827 287.115119 
L 700.143827 224.727851 
" style="fill:none;stroke:#ffffff;stroke-linecap:square;stroke-width:0.8;"/>
     </g>
     <g id="line2d_59">
      <g>
       <use style="fill:#555555;stroke:#555555;stroke-width:0.8;" x="700.143827" xlink:href="#m1056975cc5" y="287.115119"/>
      </g>
     </g>
    </g>
   </g>
   <g id="matplotlib.axis_24"/>
   <g id="line2d_60">
    <g clip-path="url(#pe849786b14)">
     <use style="fill:#e24a33;stroke:#e24a33;" x="619.7722" xlink:href="#md6e4999668" y="235.125729"/>
     <use style="fill:#e24a33;stroke:#e24a33;" x="625.289661" xlink:href="#md6e4999668" y="245.523607"/>
     <use style="fill:#e24a33;stroke:#e24a33;" x="625.371574" xlink:href="#md6e4999668" y="255.921485"/>
     <use style="fill:#e24a33;stroke:#e24a33;" x="618.601937" xlink:href="#md6e4999668" y="266.319363"/>
     <use style="fill:#e24a33;stroke:#e24a33;" x="620.026339" xlink:href="#md6e4999668" y="276.717241"/>
    </g>
   </g>
   <g id="patch_58">
    <path d="M 602.443636 287.115119 
L 602.443636 224.727851 
" style="fill:none;stroke:#ffffff;stroke-linecap:square;stroke-linejoin:miter;"/>
   </g>
   <g id="patch_59">
    <path d="M 838.08 287.115119 
L 838.08 224.727851 
" style="fill:none;stroke:#ffffff;stroke-linecap:square;stroke-linejoin:miter;"/>
   </g>
   <g id="patch_60">
    <path d="M 602.443636 287.115119 
L 838.08 287.115119 
" style="fill:none;stroke:#ffffff;stroke-linecap:square;stroke-linejoin:miter;"/>
   </g>
   <g id="patch_61">
    <path d="M 602.443636 224.727851 
L 838.08 224.727851 
" style="fill:none;stroke:#ffffff;stroke-linecap:square;stroke-linejoin:miter;"/>
   </g>
  </g>
  <g id="axes_13">
   <g id="patch_62">
    <path d="M 602.443636 354.493369 
L 838.08 354.493369 
L 838.08 301.018568 
L 602.443636 301.018568 
z
" style="fill:#e5e5e5;"/>
   </g>
   <g id="matplotlib.axis_25">
    <g id="xtick_25">
     <g id="line2d_61">
      <path clip-path="url(#pdd4d92f3c6)" d="M 620.058322 354.493369 
L 620.058322 301.018568 
" style="fill:none;stroke:#ffffff;stroke-linecap:square;stroke-width:0.8;"/>
     </g>
     <g id="line2d_62">
      <g>
       <use style="fill:#555555;stroke:#555555;stroke-width:0.8;" x="620.058322" xlink:href="#m1056975cc5" y="354.493369"/>
      </g>
     </g>
    </g>
    <g id="xtick_26">
     <g id="line2d_63">
      <path clip-path="url(#pdd4d92f3c6)" d="M 700.143827 354.493369 
L 700.143827 301.018568 
" style="fill:none;stroke:#ffffff;stroke-linecap:square;stroke-width:0.8;"/>
     </g>
     <g id="line2d_64">
      <g>
       <use style="fill:#555555;stroke:#555555;stroke-width:0.8;" x="700.143827" xlink:href="#m1056975cc5" y="354.493369"/>
      </g>
     </g>
    </g>
   </g>
   <g id="matplotlib.axis_26"/>
   <g id="line2d_65">
    <g clip-path="url(#pdd4d92f3c6)">
     <use style="fill:#e24a33;stroke:#e24a33;" x="620.353513" xlink:href="#md6e4999668" y="311.713528"/>
     <use style="fill:#e24a33;stroke:#e24a33;" x="621.135025" xlink:href="#md6e4999668" y="322.408488"/>
     <use style="fill:#e24a33;stroke:#e24a33;" x="619.731339" xlink:href="#md6e4999668" y="333.103448"/>
     <use style="fill:#e24a33;stroke:#e24a33;" x="619.540209" xlink:href="#md6e4999668" y="343.798408"/>
    </g>
   </g>
   <g id="patch_63">
    <path d="M 602.443636 354.493369 
L 602.443636 301.018568 
" style="fill:none;stroke:#ffffff;stroke-linecap:square;stroke-linejoin:miter;"/>
   </g>
   <g id="patch_64">
    <path d="M 838.08 354.493369 
L 838.08 301.018568 
" style="fill:none;stroke:#ffffff;stroke-linecap:square;stroke-linejoin:miter;"/>
   </g>
   <g id="patch_65">
    <path d="M 602.443636 354.493369 
L 838.08 354.493369 
" style="fill:none;stroke:#ffffff;stroke-linecap:square;stroke-linejoin:miter;"/>
   </g>
   <g id="patch_66">
    <path d="M 602.443636 301.018568 
L 838.08 301.018568 
" style="fill:none;stroke:#ffffff;stroke-linecap:square;stroke-linejoin:miter;"/>
   </g>
  </g>
  <g id="axes_14">
   <g id="patch_67">
    <path d="M 602.443636 412.959151 
L 838.08 412.959151 
L 838.08 368.396817 
L 602.443636 368.396817 
z
" style="fill:#e5e5e5;"/>
   </g>
   <g id="matplotlib.axis_27">
    <g id="xtick_27">
     <g id="line2d_66">
      <path clip-path="url(#p1cead181a1)" d="M 620.058322 412.959151 
L 620.058322 368.396817 
" style="fill:none;stroke:#ffffff;stroke-linecap:square;stroke-width:0.8;"/>
     </g>
     <g id="line2d_67">
      <g>
       <use style="fill:#555555;stroke:#555555;stroke-width:0.8;" x="620.058322" xlink:href="#m1056975cc5" y="412.959151"/>
      </g>
     </g>
    </g>
    <g id="xtick_28">
     <g id="line2d_68">
      <path clip-path="url(#p1cead181a1)" d="M 700.143827 412.959151 
L 700.143827 368.396817 
" style="fill:none;stroke:#ffffff;stroke-linecap:square;stroke-width:0.8;"/>
     </g>
     <g id="line2d_69">
      <g>
       <use style="fill:#555555;stroke:#555555;stroke-width:0.8;" x="700.143827" xlink:href="#m1056975cc5" y="412.959151"/>
      </g>
     </g>
    </g>
   </g>
   <g id="matplotlib.axis_28"/>
   <g id="line2d_70">
    <g clip-path="url(#p1cead181a1)">
     <use style="fill:#e24a33;stroke:#e24a33;" x="618.850443" xlink:href="#md6e4999668" y="379.537401"/>
     <use style="fill:#e24a33;stroke:#e24a33;" x="618.701225" xlink:href="#md6e4999668" y="390.677984"/>
     <use style="fill:#e24a33;stroke:#e24a33;" x="619.902707" xlink:href="#md6e4999668" y="401.818568"/>
    </g>
   </g>
   <g id="patch_68">
    <path d="M 602.443636 412.959151 
L 602.443636 368.396817 
" style="fill:none;stroke:#ffffff;stroke-linecap:square;stroke-linejoin:miter;"/>
   </g>
   <g id="patch_69">
    <path d="M 838.08 412.959151 
L 838.08 368.396817 
" style="fill:none;stroke:#ffffff;stroke-linecap:square;stroke-linejoin:miter;"/>
   </g>
   <g id="patch_70">
    <path d="M 602.443636 412.959151 
L 838.08 412.959151 
" style="fill:none;stroke:#ffffff;stroke-linecap:square;stroke-linejoin:miter;"/>
   </g>
   <g id="patch_71">
    <path d="M 602.443636 368.396817 
L 838.08 368.396817 
" style="fill:none;stroke:#ffffff;stroke-linecap:square;stroke-linejoin:miter;"/>
   </g>
  </g>
  <g id="axes_15">
   <g id="patch_72">
    <path d="M 602.443636 453.6 
L 838.08 453.6 
L 838.08 426.862599 
L 602.443636 426.862599 
z
" style="fill:#e5e5e5;"/>
   </g>
   <g id="matplotlib.axis_29">
    <g id="xtick_29">
     <g id="line2d_71">
      <path clip-path="url(#pd5d5346616)" d="M 620.058322 453.6 
L 620.058322 426.862599 
" style="fill:none;stroke:#ffffff;stroke-linecap:square;stroke-width:0.8;"/>
     </g>
     <g id="line2d_72">
      <g>
       <use style="fill:#555555;stroke:#555555;stroke-width:0.8;" x="620.058322" xlink:href="#m1056975cc5" y="453.6"/>
      </g>
     </g>
     <g id="text_8">
      <!-- 1.0 -->
      <g style="fill:#555555;" transform="translate(610.086561 471.669588)scale(0.16 -0.16)">
       <use transform="scale(0.996264)" xlink:href="#CMR17-49"/>
       <use transform="translate(45.690477 0)scale(0.996264)" xlink:href="#CMR17-46"/>
       <use transform="translate(70.561536 0)scale(0.996264)" xlink:href="#CMR17-48"/>
      </g>
     </g>
    </g>
    <g id="xtick_30">
     <g id="line2d_73">
      <path clip-path="url(#pd5d5346616)" d="M 700.143827 453.6 
L 700.143827 426.862599 
" style="fill:none;stroke:#ffffff;stroke-linecap:square;stroke-width:0.8;"/>
     </g>
     <g id="line2d_74">
      <g>
       <use style="fill:#555555;stroke:#555555;stroke-width:0.8;" x="700.143827" xlink:href="#m1056975cc5" y="453.6"/>
      </g>
     </g>
     <g id="text_9">
      <!-- 1.05 -->
      <g style="fill:#555555;" transform="translate(686.270072 471.669588)scale(0.16 -0.16)">
       <use transform="scale(0.996264)" xlink:href="#CMR17-49"/>
       <use transform="translate(45.690477 0)scale(0.996264)" xlink:href="#CMR17-46"/>
       <use transform="translate(70.561536 0)scale(0.996264)" xlink:href="#CMR17-48"/>
       <use transform="translate(116.252013 0)scale(0.996264)" xlink:href="#CMR17-53"/>
      </g>
     </g>
    </g>
   </g>
   <g id="matplotlib.axis_30"/>
   <g id="line2d_75">
    <g clip-path="url(#pd5d5346616)">
     <use style="fill:#e24a33;stroke:#e24a33;" x="822.062899" xlink:href="#md6e4999668" y="440.2313"/>
    </g>
   </g>
   <g id="patch_73">
    <path d="M 602.443636 453.6 
L 602.443636 426.862599 
" style="fill:none;stroke:#ffffff;stroke-linecap:square;stroke-linejoin:miter;"/>
   </g>
   <g id="patch_74">
    <path d="M 838.08 453.6 
L 838.08 426.862599 
" style="fill:none;stroke:#ffffff;stroke-linecap:square;stroke-linejoin:miter;"/>
   </g>
   <g id="patch_75">
    <path d="M 602.443636 453.6 
L 838.08 453.6 
" style="fill:none;stroke:#ffffff;stroke-linecap:square;stroke-linejoin:miter;"/>
   </g>
   <g id="patch_76">
    <path d="M 602.443636 426.862599 
L 838.08 426.862599 
" style="fill:none;stroke:#ffffff;stroke-linecap:square;stroke-linejoin:miter;"/>
   </g>
  </g>
  <g id="text_10">
   <!-- $W_{IA}$ -->
   <defs>
    <path d="M 90.296875 56.96875 
C 92.59375 60.84375 94.796875 64.515625 100.796875 65.125 
C 101.703125 65.21875 102.59375 65.3125 102.59375 66.90625 
C 102.59375 68 101.703125 68 101.40625 68 
C 101.203125 68 100.5 68 93.90625 68 
C 90.90625 68 87.796875 68 84.90625 68 
C 84.296875 68 83.09375 68 83.09375 66.03125 
C 83.09375 65.09375 83.90625 65 84.5 65 
C 86.5 65 89.703125 64.40625 89.703125 61.328125 
C 89.703125 60.03125 89.296875 59.328125 88.296875 57.65625 
L 61 10.125 
L 57.40625 61.921875 
C 57.40625 63.109375 58.5 65 64.09375 65 
C 65.40625 65 66.40625 65 66.40625 66.96875 
C 66.40625 68 65.40625 68 64.90625 68 
C 61.40625 68 57.703125 68 54.09375 68 
L 48.90625 68 
C 47.40625 68 45.59375 68 44.09375 68 
C 43.5 68 42.296875 68 42.296875 66.03125 
C 42.296875 65 43 65 44.703125 65 
C 49.296875 65 49.296875 64.890625 49.703125 58.9375 
L 50 55.359375 
L 24.09375 10.125 
L 20.40625 61.421875 
C 20.40625 62.53125 20.40625 65 27.203125 65 
C 28.296875 65 29.40625 65 29.40625 66.859375 
C 29.40625 68 28.5 68 27.90625 68 
C 24.40625 68 20.703125 68 17.09375 68 
L 11.90625 68 
C 10.40625 68 8.59375 68 7.09375 68 
C 6.5 68 5.296875 68 5.296875 66.03125 
C 5.296875 65 6.09375 65 7.5 65 
C 12.203125 65 12.296875 64.390625 12.5 61.21875 
L 16.90625 0.28125 
C 17 -1.40625 17.09375 -2 18.296875 -2 
C 19.296875 -2 19.5 -1.609375 20.40625 -0.109375 
L 50.203125 51.671875 
L 53.90625 0.28125 
C 54 -1.40625 54.09375 -2 55.296875 -2 
C 56.296875 -2 56.59375 -1.5 57.40625 -0.109375 
z
" id="CMMI12-87"/>
    <path d="M 36.796875 60.625 
C 37.703125 64.109375 37.90625 65.109375 45.203125 65.109375 
C 47.40625 65.109375 48.203125 65.109375 48.203125 67 
C 48.203125 68 47.09375 68 46.796875 68 
C 45 68 42.796875 68 41 68 
L 28.703125 68 
C 26.703125 68 24.40625 68 22.40625 68 
C 21.59375 68 20.5 68 20.5 66.109375 
C 20.5 65.109375 21.296875 65.109375 23.296875 65.109375 
C 29.5 65.109375 29.5 64.3125 29.5 63.21875 
C 29.5 62.53125 29.296875 61.921875 29.09375 61.03125 
L 15.59375 7.375 
C 14.703125 3.890625 14.5 2.890625 7.203125 2.890625 
C 5 2.890625 4.09375 2.890625 4.09375 1 
C 4.09375 0 5.09375 0 5.59375 0 
C 7.40625 0 9.59375 0 11.40625 0 
L 23.703125 0 
C 25.703125 0 27.90625 0 29.90625 0 
C 30.703125 0 31.90625 0 31.90625 1.796875 
C 31.90625 2.890625 31.296875 2.890625 29.09375 2.890625 
C 22.90625 2.890625 22.90625 3.6875 22.90625 4.875 
C 22.90625 5.078125 22.90625 5.578125 23.296875 7.171875 
z
" id="CMMI12-73"/>
    <path d="M 17 10.796875 
C 13.5 4.90625 10.09375 2.90625 5.296875 2.90625 
C 4.203125 2.8125 3.40625 2.8125 3.40625 0.90625 
C 3.40625 0.375 3.90625 0 4.59375 0 
C 6.40625 0 10.90625 0 12.703125 0 
C 15.59375 0 18.796875 0 21.59375 0 
C 22.203125 0 23.40625 0 23.40625 1.90625 
C 23.40625 2.8125 22.59375 2.90625 22 2.90625 
C 19.703125 2.90625 17.796875 3.6875 17.796875 6.0625 
C 17.796875 7.4375 18.40625 8.53125 19.703125 10.703125 
L 27.296875 23.109375 
L 52.796875 23.109375 
C 52.90625 22.234375 52.90625 21.453125 53 20.5625 
C 53.296875 18 54.5 7.734375 54.5 5.875 
C 54.5 2.90625 49.40625 2.90625 47.796875 2.90625 
C 46.703125 2.90625 45.59375 2.90625 45.59375 1.09375 
C 45.59375 0 46.5 0 47.09375 0 
C 48.796875 0 50.796875 0 52.5 0 
L 58.203125 0 
C 64.296875 0 68.703125 0 68.796875 0 
C 69.5 0 70.59375 0 70.59375 1.90625 
C 70.59375 2.90625 69.703125 2.90625 68.203125 2.90625 
C 62.703125 2.90625 62.59375 3.8125 62.296875 6.78125 
L 56.203125 68.8125 
C 56 70.796875 55.59375 71 54.5 71 
C 53.5 71 52.90625 70.796875 52 69.296875 
z
M 29 26 
L 49.09375 59.671875 
L 52.5 26 
z
" id="CMMI12-65"/>
   </defs>
   <g transform="translate(12.485428 136.090954)scale(0.22 -0.22)">
    <use transform="translate(0 14.943915)scale(0.996264)" xlink:href="#CMMI12-87"/>
    <use transform="translate(92.095909 0)scale(0.697382)" xlink:href="#CMMI12-73"/>
    <use transform="translate(127.695291 0)scale(0.697382)" xlink:href="#CMMI12-65"/>
   </g>
  </g>
  <g id="text_11">
   <!-- $W_{T_T}$ -->
   <defs>
    <path d="M 41.703125 61.09375 
C 42.296875 63.5 42.5 64.390625 44 64.796875 
C 44.796875 65 48.09375 65 50.203125 65 
C 60.203125 65 64.90625 64.59375 64.90625 56.78125 
C 64.90625 55.265625 64.5 51.484375 63.90625 47.765625 
L 63.796875 46.5625 
C 63.796875 46.15625 64.203125 45.5625 64.796875 45.5625 
C 65.796875 45.5625 65.796875 46.0625 66.09375 47.65625 
L 69 65.375 
C 69.203125 66.296875 69.203125 66.5 69.203125 66.796875 
C 69.203125 67.890625 68.59375 67.890625 66.59375 67.890625 
L 11.90625 67.890625 
C 9.59375 67.890625 9.5 67.796875 8.90625 66 
L 2.796875 47.96875 
C 2.703125 47.75 2.40625 46.65625 2.40625 46.5625 
C 2.40625 46.0625 2.796875 45.5625 3.40625 45.5625 
C 4.203125 45.5625 4.40625 45.953125 4.796875 47.25 
C 9 59.390625 11.09375 65 24.40625 65 
L 31.09375 65 
C 33.5 65 34.5 65 34.5 63.890625 
C 34.5 63.578125 34.5 63.390625 34 61.578125 
L 20.59375 7.796875 
C 19.59375 3.890625 19.40625 2.890625 8.796875 2.890625 
C 6.296875 2.890625 5.59375 2.890625 5.59375 1 
C 5.59375 0 6.703125 0 7.203125 0 
C 9.703125 0 12.296875 0 14.796875 0 
L 30.40625 0 
C 32.90625 0 35.59375 0 38.09375 0 
C 39.203125 0 40.203125 0 40.203125 1.890625 
C 40.203125 2.890625 39.5 2.890625 36.90625 2.890625 
C 27.90625 2.890625 27.90625 3.796875 27.90625 5.296875 
C 27.90625 5.40625 27.90625 6.109375 28.296875 7.71875 
z
" id="CMMI12-84"/>
   </defs>
   <g transform="translate(16.369879 261.941384)scale(0.22 -0.22)">
    <use transform="translate(0 25.404611)scale(0.996264)" xlink:href="#CMMI12-87"/>
    <use transform="translate(92.095909 10.460696)scale(0.697382)" xlink:href="#CMMI12-84"/>
    <use transform="translate(132.118265 0)scale(0.498132)" xlink:href="#CMMI12-84"/>
   </g>
  </g>
  <g id="text_12">
   <!-- $W_{T_S}$ -->
   <defs>
    <path d="M 63.5 69.109375 
C 63.5 70 62.796875 70 62.59375 70 
C 62.203125 70 62.09375 69.90625 60.90625 68.40625 
C 60.296875 67.703125 56.203125 62.515625 56.09375 62.421875 
C 52.796875 68.90625 46.203125 70 42 70 
C 29.296875 70 17.796875 58.484375 17.796875 47.265625 
C 17.796875 39.828125 22.296875 35.453125 27.203125 33.765625 
C 28.296875 33.359375 34.203125 31.765625 37.203125 31.078125 
C 42.296875 29.6875 43.59375 29.296875 45.703125 27.109375 
C 46.09375 26.609375 48.09375 24.328125 48.09375 19.65625 
C 48.09375 10.421875 39.5 0.890625 29.5 0.890625 
C 21.296875 0.890625 12.203125 4.375 12.203125 15.484375 
C 12.203125 17.375 12.59375 19.765625 12.90625 20.75 
C 12.90625 21.0625 13 21.53125 13 21.734375 
C 13 22.140625 12.796875 22.640625 12 22.640625 
C 11.09375 22.640625 11 22.4375 10.59375 20.75 
L 5.5 0.375 
C 5.5 0.28125 5.09375 -1 5.09375 -1.109375 
C 5.09375 -2 5.90625 -2 6.09375 -2 
C 6.5 -2 6.59375 -1.90625 7.796875 -0.40625 
L 12.40625 5.5625 
C 14.796875 1.96875 20 -2 29.296875 -2 
C 42.203125 -2 54 10.40625 54 22.8125 
C 54 27 53 30.671875 49.203125 34.328125 
C 47.09375 36.421875 45.296875 36.921875 36.09375 39.3125 
C 29.40625 41.09375 28.5 41.390625 26.703125 42.984375 
C 25 44.65625 23.703125 47.046875 23.703125 50.421875 
C 23.703125 58.765625 32.203125 67.3125 41.703125 67.3125 
C 51.5 67.3125 56.09375 61.34375 56.09375 51.921875 
C 56.09375 49.34375 55.59375 46.65625 55.59375 46.265625 
C 55.59375 45.359375 56.40625 45.359375 56.703125 45.359375 
C 57.59375 45.359375 57.703125 45.65625 58.09375 47.25 
z
" id="CMMI12-83"/>
   </defs>
   <g transform="translate(16.054047 333.775866)scale(0.22 -0.22)">
    <use transform="translate(0 25.404611)scale(0.996264)" xlink:href="#CMMI12-87"/>
    <use transform="translate(92.095909 10.460696)scale(0.697382)" xlink:href="#CMMI12-84"/>
    <use transform="translate(132.118265 0)scale(0.498132)" xlink:href="#CMMI12-83"/>
   </g>
  </g>
  <g id="text_13">
   <!-- $W_{D}$ -->
   <defs>
    <path d="M 15.703125 7.375 
C 14.796875 3.890625 14.59375 2.890625 7.59375 2.890625 
C 5.703125 2.890625 4.703125 2.890625 4.703125 1.09375 
C 4.703125 0 5.296875 0 7.296875 0 
L 39 0 
C 59.203125 0 78.90625 20.8125 78.90625 43.015625 
C 78.90625 57.359375 70.296875 68 56 68 
L 23.90625 68 
C 22 68 21.09375 68 21.09375 66.109375 
C 21.09375 65.109375 22 65.109375 23.5 65.109375 
C 29.59375 65.109375 29.59375 64.3125 29.59375 63.21875 
C 29.59375 63.03125 29.59375 62.421875 29.203125 60.921875 
z
M 36.796875 61.421875 
C 37.703125 65.109375 38.09375 65.109375 42 65.109375 
L 53 65.109375 
C 62.40625 65.109375 71 60.03125 71 46.296875 
C 71 41.3125 69 24 59.296875 13.046875 
C 56.5 9.765625 48.90625 2.890625 37.40625 2.890625 
L 26 2.890625 
C 24.59375 2.890625 24.40625 2.890625 23.796875 3 
C 22.703125 3.09375 22.59375 3.296875 22.59375 4.09375 
C 22.59375 4.796875 22.796875 5.390625 23 6.28125 
z
" id="CMMI12-68"/>
   </defs>
   <g transform="translate(19.105865 396.156737)scale(0.22 -0.22)">
    <use transform="translate(0 14.943915)scale(0.996264)" xlink:href="#CMMI12-87"/>
    <use transform="translate(92.095909 0)scale(0.697382)" xlink:href="#CMMI12-68"/>
   </g>
  </g>
  <g id="text_14">
   <!-- $W_{E/W}$ -->
   <defs>
    <path d="M 69.5 23.265625 
C 69.59375 23.5625 69.90625 24.28125 69.90625 24.671875 
C 69.90625 25.171875 69.5 25.671875 68.90625 25.671875 
C 68.5 25.671875 68.296875 25.578125 68 25.265625 
C 67.796875 25.171875 67.796875 24.96875 66.90625 22.953125 
C 61 8.90625 56.703125 2.890625 40.703125 2.890625 
L 26.09375 2.890625 
C 24.703125 2.890625 24.5 2.890625 23.90625 3 
C 22.796875 3.09375 22.703125 3.296875 22.703125 4.09375 
C 22.703125 4.796875 22.90625 5.390625 23.09375 6.296875 
L 30 34 
L 39.90625 34 
C 47.703125 34 48.296875 32.28125 48.296875 29.28125 
C 48.296875 28.28125 48.296875 27.375 47.59375 24.375 
C 47.40625 23.96875 47.296875 23.5625 47.296875 23.265625 
C 47.296875 22.5625 47.796875 22.265625 48.40625 22.265625 
C 49.296875 22.265625 49.40625 22.953125 49.796875 24.359375 
L 55.5 47.53125 
C 55.5 48.015625 55.09375 48.515625 54.5 48.515625 
C 53.59375 48.515625 53.5 48.125 53.09375 46.71875 
C 51.09375 39.078125 49.09375 36.890625 40.203125 36.890625 
L 30.703125 36.890625 
L 36.90625 61.40625 
C 37.796875 64.90625 38 64.90625 42.09375 64.90625 
L 56.40625 64.90625 
C 68.703125 64.90625 71.203125 61.609375 71.203125 54.03125 
C 71.203125 53.921875 71.203125 51.140625 70.796875 47.84375 
C 70.703125 47.4375 70.59375 46.84375 70.59375 46.640625 
C 70.59375 45.84375 71.09375 45.546875 71.703125 45.546875 
C 72.40625 45.546875 72.796875 45.953125 73 47.734375 
L 75.09375 65.21875 
C 75.09375 65.546875 75.296875 66.609375 75.296875 66.828125 
C 75.296875 68 74.40625 68 72.59375 68 
L 23.796875 68 
C 21.90625 68 20.90625 68 20.90625 66.078125 
C 20.90625 64.90625 21.59375 64.90625 23.296875 64.90625 
C 29.5 64.90625 29.5 64.28125 29.5 63.3125 
C 29.5 62.8125 29.40625 62.40625 29.09375 61.3125 
L 15.59375 7.390625 
C 14.703125 3.890625 14.5 2.890625 7.5 2.890625 
C 5.59375 2.890625 4.59375 2.890625 4.59375 1.09375 
C 4.59375 0 5.203125 0 7.203125 0 
L 57.40625 0 
C 59.59375 0 59.703125 0.09375 60.40625 1.71875 
z
" id="CMMI12-69"/>
    <path d="M 42.90625 71.28125 
C 42.90625 71.390625 43.5 72.90625 43.5 73.09375 
C 43.5 74.296875 42.5 75 41.703125 75 
C 41.203125 75 40.296875 75 39.5 72.796875 
L 6 -21.296875 
C 6 -21.40625 5.40625 -22.890625 5.40625 -23.09375 
C 5.40625 -24.296875 6.40625 -25 7.203125 -25 
C 7.796875 -25 8.703125 -24.890625 9.40625 -22.796875 
z
" id="CMMI12-61"/>
   </defs>
   <g transform="translate(-2.134962 447.35316)scale(0.22 -0.22)">
    <use transform="translate(0 17.987904)scale(0.996264)" xlink:href="#CMMI12-87"/>
    <use transform="translate(92.095909 0)scale(0.697382)" xlink:href="#CMMI12-69"/>
    <use transform="translate(146.731814 0)scale(0.697382)" xlink:href="#CMMI12-61"/>
    <use transform="translate(180.874106 0)scale(0.697382)" xlink:href="#CMMI12-87"/>
   </g>
  </g>
  <g id="text_15">
   <!-- $\textbf{1A}$ -->
   <defs>
    <path d="M 34.59375 62.109375 
C 34.59375 65 34.40625 65 31.203125 65 
C 23.796875 59 12.703125 59 10.5 59 
L 8.59375 59 
L 8.59375 54.734375 
L 10.5 54.734375 
C 14 54.734375 19.296875 55.328125 23.296875 56.625 
L 23.296875 4.171875 
L 9.40625 4.171875 
L 9.40625 0 
C 13.59375 0 24.09375 0 28.796875 0 
C 33.5 0 44.09375 0 48.296875 0 
L 48.296875 4.171875 
L 34.59375 4.171875 
z
" id="CMBX12-49"/>
    <path d="M 45.796875 67.203125 
C 45.09375 69 44.90625 69.5 42.5 69.5 
C 40 69.5 39.796875 69 39.09375 67.203125 
L 14.296875 6.453125 
C 13.59375 4.859375 13.59375 4.671875 10.796875 4.359375 
C 8.296875 4.0625 7.90625 4.0625 5.703125 4.0625 
L 3.90625 4.0625 
L 3.90625 -0.203125 
C 6.5 0 12.5 0 15.40625 0 
C 18.09375 0 25.40625 0 27.703125 -0.203125 
L 27.703125 4.0625 
C 25.5 4.0625 21.703125 4.0625 18.90625 5.171875 
C 19.203125 6.09375 19.203125 6.28125 19.40625 6.6875 
L 24.703125 19.71875 
L 51.5 19.71875 
L 57.796875 4.0625 
L 48.40625 4.0625 
L 48.40625 0 
C 51.59375 0 61.296875 0 65.09375 0 
C 68.296875 0 78.5 0 81 -0.203125 
L 81 4.0625 
L 71.5 4.0625 
z
M 38.09375 52.609375 
L 49.703125 24 
L 26.40625 24 
z
" id="CMBX12-65"/>
   </defs>
   <g transform="translate(60.48 47.88)scale(0.22 -0.22)">
    <use transform="scale(0.996264)" xlink:href="#CMBX12-49"/>
    <use transform="translate(56.039851 0)scale(0.996264)" xlink:href="#CMBX12-65"/>
   </g>
  </g>
  <g id="text_16">
   <!-- $\textbf{2B}$ -->
   <defs>
    <path d="M 50.5 21.375 
L 46.296875 21.375 
C 46 19.28125 45.296875 13.40625 43.796875 12.421875 
C 43 11.71875 35.203125 11.71875 33.703125 11.71875 
L 18.203125 11.71875 
C 22 14.90625 31.09375 22.46875 32.59375 23.578125 
C 43.703125 31.84375 50.5 36.90625 50.5 46.46875 
C 50.5 58.203125 39.796875 65.28125 26.59375 65.28125 
C 15.296875 65.28125 5.59375 58.90625 5.59375 49.453125 
C 5.59375 44.171875 9.90625 42.6875 12.203125 42.6875 
C 15.296875 42.6875 18.90625 44.765625 18.90625 49.359375 
C 18.90625 53.546875 15.796875 55.625 12.703125 56.03125 
C 16.703125 60.609375 22 61 24.09375 61 
C 33.296875 61 37.703125 53.546875 37.703125 46.375 
C 37.703125 38.609375 32.40625 31.453125 28.296875 27.171875 
L 6.59375 4.578125 
C 5.59375 3.671875 5.59375 3.484375 5.59375 1.6875 
L 5.59375 0 
L 47.59375 0 
z
" id="CMBX12-50"/>
    <path d="M 3.90625 68.28125 
L 3.90625 64 
L 14.5 64 
L 14.5 4.265625 
L 3.90625 4.265625 
L 3.90625 0 
L 49.09375 0 
C 65.59375 0 73.703125 8.828125 73.703125 18.34375 
C 73.703125 27.78125 65.40625 34.625 53.296875 35.515625 
C 67.703125 38.21875 70.5 46.40625 70.5 51.09375 
C 70.5 60.28125 62.09375 68.28125 46.09375 68.28125 
z
M 26.796875 37 
L 26.796875 64 
L 44.90625 64 
C 55.203125 64 57.296875 56.203125 57.296875 51.1875 
C 57.296875 44.1875 53.40625 37 41.703125 37 
z
M 26.796875 4.265625 
L 26.796875 33.71875 
L 46.703125 33.71875 
C 58.40625 33.71875 60.09375 23 60.09375 18.546875 
C 60.09375 12.296875 56.703125 4.265625 45.203125 4.265625 
z
" id="CMBX12-66"/>
   </defs>
   <g transform="translate(331.461818 47.88)scale(0.22 -0.22)">
    <use transform="scale(0.996264)" xlink:href="#CMBX12-50"/>
    <use transform="translate(56.039851 0)scale(0.996264)" xlink:href="#CMBX12-66"/>
   </g>
  </g>
  <g id="text_17">
   <!-- $\textbf{3C}$ -->
   <defs>
    <path d="M 26.09375 33 
C 37.296875 33 37.296875 22.71875 37.296875 17.984375 
C 37.296875 13.53125 37.296875 3.0625 26.5 3.0625 
C 24.40625 3.0625 17.796875 3.0625 13 6.625 
C 17.296875 7.515625 18.796875 10.59375 18.796875 13.5625 
C 18.796875 17.625 15.90625 20.5 11.796875 20.5 
C 7.59375 20.5 4.703125 17.625 4.703125 13.46875 
C 4.703125 4.34375 14.703125 -1 27 -1 
C 43.5 -1 51.40625 8.015625 51.40625 17.921875 
C 51.40625 22.796875 48.90625 32.203125 33.40625 34.875 
C 42.203125 37.59375 48.296875 43.8125 48.296875 51.71875 
C 48.296875 59.25 41.09375 65.578125 27.203125 65.578125 
C 16 65.578125 7.796875 59.65625 7.796875 51.53125 
C 7.796875 46.515625 11.703125 44.90625 14.296875 44.90625 
C 17.203125 44.90625 20.703125 46.8125 20.703125 51.4375 
C 20.703125 53.765625 19.703125 57.171875 15 57.875 
C 19.203125 62 26 62 26.59375 62 
C 35.5 62 35.5 55.03125 35.5 52.015625 
C 35.5 48.984375 35.09375 44.328125 31.90625 40.203125 
C 29.296875 36.75 26.703125 36.5625 22.90625 36.5625 
C 21.703125 36.265625 19.703125 36.265625 19.296875 36.078125 
C 18.703125 35.78125 18.703125 35.078125 18.703125 34.6875 
C 18.703125 33 19.296875 33 21.296875 33 
z
" id="CMBX12-51"/>
    <path d="M 74.90625 66.4375 
C 74.90625 68.71875 74.90625 69.015625 72.703125 69.015625 
L 65.203125 61.859375 
C 59.59375 66.609375 52.90625 69 45.5 69 
C 21.59375 69 6.203125 54.640625 6.203125 33.859375 
C 6.203125 13.46875 21.09375 -1.265625 45.59375 -1.265625 
C 63.40625 -1.265625 74.90625 10.796875 74.90625 22.484375 
C 74.90625 24.171875 74.296875 24.171875 72.796875 24.171875 
C 71.796875 24.171875 70.796875 24.171875 70.703125 23.1875 
C 69.796875 8.15625 56.90625 3 47.90625 3 
C 41.40625 3 32.59375 4.796875 27 11.015625 
C 23.5 14.78125 20.296875 20.203125 20.296875 33.859375 
C 20.296875 43.5625 21.796875 50.78125 26.5 56.3125 
C 32.90625 63.734375 42.90625 64.734375 47.703125 64.734375 
C 55.203125 64.734375 67.296875 60.5625 70.296875 43.15625 
C 70.5 42.265625 71.40625 42.265625 72.59375 42.265625 
C 74.90625 42.265625 74.90625 42.46875 74.90625 44.84375 
z
" id="CMBX12-67"/>
   </defs>
   <g transform="translate(602.443636 47.88)scale(0.22 -0.22)">
    <use transform="scale(0.996264)" xlink:href="#CMBX12-51"/>
    <use transform="translate(56.039851 0)scale(0.996264)" xlink:href="#CMBX12-67"/>
   </g>
  </g>
 </g>
 <defs>
  <clipPath id="p10e0195c95">
   <rect height="160.424403" width="235.636364" x="60.48" y="50.4"/>
  </clipPath>
  <clipPath id="p11b71a6049">
   <rect height="62.387268" width="235.636364" x="60.48" y="224.727851"/>
  </clipPath>
  <clipPath id="ped3cae17e0">
   <rect height="53.474801" width="235.636364" x="60.48" y="301.018568"/>
  </clipPath>
  <clipPath id="p4c1955757c">
   <rect height="44.562334" width="235.636364" x="60.48" y="368.396817"/>
  </clipPath>
  <clipPath id="pd6cf4890e5">
   <rect height="26.737401" width="235.636364" x="60.48" y="426.862599"/>
  </clipPath>
  <clipPath id="pb2d22dc43a">
   <rect height="160.424403" width="235.636364" x="331.461818" y="50.4"/>
  </clipPath>
  <clipPath id="p44f0343202">
   <rect height="62.387268" width="235.636364" x="331.461818" y="224.727851"/>
  </clipPath>
  <clipPath id="pa6c90211ac">
   <rect height="53.474801" width="235.636364" x="331.461818" y="301.018568"/>
  </clipPath>
  <clipPath id="pfce766b7f2">
   <rect height="44.562334" width="235.636364" x="331.461818" y="368.396817"/>
  </clipPath>
  <clipPath id="p15c0be9154">
   <rect height="26.737401" width="235.636364" x="331.461818" y="426.862599"/>
  </clipPath>
  <clipPath id="p8949e18938">
   <rect height="160.424403" width="235.636364" x="602.443636" y="50.4"/>
  </clipPath>
  <clipPath id="pe849786b14">
   <rect height="62.387268" width="235.636364" x="602.443636" y="224.727851"/>
  </clipPath>
  <clipPath id="pdd4d92f3c6">
   <rect height="53.474801" width="235.636364" x="602.443636" y="301.018568"/>
  </clipPath>
  <clipPath id="p1cead181a1">
   <rect height="44.562334" width="235.636364" x="602.443636" y="368.396817"/>
  </clipPath>
  <clipPath id="pd5d5346616">
   <rect height="26.737401" width="235.636364" x="602.443636" y="426.862599"/>
  </clipPath>
 </defs>
</svg>
